<svg width="512" height="512" xmlns="http://www.w3.org/2000/svg">

 <g>
  <title>background</title>
  <rect fill="none" id="canvas_background" height="402" width="582" y="-1" x="-1"/>
 </g>
 <g>
  <title>Layer 1</title>
  <g stroke="null" id="svg_55">
   <path stroke="null" id="svg_1" fill="#87CED9" d="m457.896179,32.850486l-403.792363,0c-23.47297,0 -42.504132,19.031162 -42.504132,42.504132l0,255.02728l488.801871,0l0,-255.02728c0,-23.471725 -19.032407,-42.504132 -42.505377,-42.504132z"/>
   <path stroke="null" id="svg_2" fill="#7DC6D1" d="m457.896179,32.850486l-56.668855,0l-297.531411,297.532657l396.705643,0l0,-255.02728c0,-23.47297 -19.032407,-42.505377 -42.505377,-42.505377z"/>
   <g stroke="null" id="svg_3">
    <polygon stroke="null" id="svg_4" fill="#4398D1" points="316.7171630859375,468.5224838256836 298.50408935546875,404.76570892333984 213.49588012695312,404.76570892333984 195.2828369140625,468.5224838256836 149.73907470703125,468.5224838256836 149.73907470703125,489.77523040771484 362.26092529296875,489.77523040771484 362.26092529296875,468.5224838256836 "/>
    <path stroke="null" id="svg_5" fill="#4398D1" d="m11.598439,362.261553c0,23.47297 19.031162,42.504132 42.504132,42.504132l403.793608,0c23.47297,0 42.504132,-19.031162 42.504132,-42.504132l0,-31.87841l-488.801871,0l0,31.87841z"/>
   </g>
   <g stroke="null" id="svg_19">
    <rect stroke="null" id="svg_20" fill="#3077A6" height="17.058" width="124.192" transform="matrix(-0.34256838235176146,1.1971837251653343,-1.1971837251653343,-0.34256838235176146,453.10272308518256,-119.29378102149997) " y="74.816422" x="222.131009"/>
    <path stroke="null" id="svg_21" fill="#3077A6" d="m185.442865,253.535006l-63.75682,-53.131098c-4.505316,-3.761901 -5.111753,-10.456368 -1.359813,-14.961683c0.414668,-0.489383 0.860468,-0.945145 1.359813,-1.359813l63.75682,-53.131098l13.60187,16.321497l-53.95919,44.969727l53.95919,44.969727l-13.60187,16.322742z"/>
    <path stroke="null" id="svg_22" fill="#3077A6" d="m326.55713,253.535006l-13.60187,-16.321497l53.95919,-44.969727l-53.95919,-44.969727l13.60187,-16.321497l63.75682,53.131098c4.505316,3.761901 5.111753,10.456368 1.359813,14.961683c-0.414668,0.489383 -0.860468,0.945145 -1.359813,1.359813l-63.75682,53.129853z"/>
   </g>
   <polygon stroke="null" id="svg_23" fill="#3B86B8" points="304.5722351074219,426.0183639526367 298.50408935546875,404.76570892333984 213.49588012695312,404.76570892333984 207.42779541015625,426.0183639526367 "/>
   <path stroke="null" id="svg_24" d="m511.027277,362.261553l0,-286.90569c-0.032377,-29.328137 -23.802961,-53.098722 -53.131098,-53.131098l-403.792363,0c-29.328137,0.032377 -53.098722,23.802961 -53.131098,53.131098l0,286.90569c0.032377,29.328137 23.802961,53.098722 53.131098,53.131098l145.302042,0l-15.174621,53.129853l-34.492191,0l0,21.252688l212.523148,0l0,-21.252688l-34.492191,0l-15.174621,-53.131098l145.302042,0c29.326892,-0.031131 53.097477,-23.801716 53.129853,-53.129853zm-456.923461,-318.7841l403.793608,0c17.607841,0 31.87841,14.270569 31.87841,31.87841l0,244.401558l-467.550428,0l0,-244.401558c0,-17.607841 14.270569,-31.87841 31.87841,-31.87841zm251.562993,425.045051l-99.333624,0l15.174621,-53.131098l68.984381,0l15.174621,53.131098zm152.22937,-74.382542l-403.792363,0c-17.607841,0 -31.87841,-14.270569 -31.87841,-31.87841l0,-21.252688l467.550428,0l0,21.252688c-0.001245,17.606595 -14.271815,31.87841 -31.879655,31.87841z"/>
   <rect stroke="null" id="svg_37" height="17.058" width="124.192" transform="matrix(-0.34256838235176146,1.1971837251653343,-1.1971837251653343,-0.34256838235176146,453.10272308518256,-119.29378102149997) " y="74.816422" x="222.131009"/>
   <path stroke="null" id="svg_38" d="m185.442865,253.535006l13.60187,-16.321497l-53.95919,-44.969727l53.95919,-44.969727l-13.60187,-16.321497l-63.75682,53.131098c-4.505316,3.761901 -5.111753,10.456368 -1.359813,14.961683c0.414668,0.489383 0.860468,0.945145 1.359813,1.359813l63.75682,53.129853z"/>
   <path stroke="null" id="svg_39" d="m326.55713,253.535006l63.75682,-53.131098c4.505316,-3.761901 5.111753,-10.456368 1.359813,-14.961683c-0.414668,-0.489383 -0.860468,-0.945145 -1.359813,-1.359813l-63.75682,-53.131098l-13.60187,16.321497l53.95919,44.969727l-53.95919,44.969727l13.60187,16.322742z"/>
   <g stroke="null" id="svg_40"/>
   <g stroke="null" id="svg_41"/>
   <g stroke="null" id="svg_42"/>
   <g stroke="null" id="svg_43"/>
   <g stroke="null" id="svg_44"/>
   <g stroke="null" id="svg_45"/>
   <g stroke="null" id="svg_46"/>
   <g stroke="null" id="svg_47"/>
   <g stroke="null" id="svg_48"/>
   <g stroke="null" id="svg_49"/>
   <g stroke="null" id="svg_50"/>
   <g stroke="null" id="svg_51"/>
   <g stroke="null" id="svg_52"/>
   <g stroke="null" id="svg_53"/>
   <g stroke="null" id="svg_54"/>
  </g>
 </g>
</svg>