<?xml version="1.0" encoding="iso-8859-1"?>
<!-- Generator: Adobe Illustrator 19.0.0, SVG Export Plug-In . SVG Version: 6.00 Build 0)  -->
<svg version="1.1" id="Capa_1" xmlns="http://www.w3.org/2000/svg" xmlns:xlink="http://www.w3.org/1999/xlink" x="0px" y="0px"
	 viewBox="0 0 512 512" style="enable-background:new 0 0 512 512;" xml:space="preserve">
<path style="fill:#F2F2F2;" d="M477.177,196.502H34.823c-15.033,0-27.219,12.187-27.219,27.219v194.958
	c0,15.033,12.187,27.219,27.219,27.219h442.354c15.033,0,27.219-12.187,27.219-27.219V223.721
	C504.396,208.688,492.209,196.502,477.177,196.502z"/>
<path d="M477.177,188.898H263.604v-19.653c0-23.876-19.574-42.589-43.449-42.697c-15.442-0.07-27.984-12.654-27.984-28.112V66.419
	c0-4.164-3.209-7.795-7.371-7.919c-4.306-0.129-7.837,3.323-7.837,7.601v32.965c0,23.899,19.547,42.585,43.446,42.691
	c15.443,0.068,27.987,12.653,27.987,28.112v19.029H94.293c-4.199,0-7.604,3.405-7.604,7.604l0,0c0,4.199,3.405,7.604,7.604,7.604
	h382.883c10.833,0,19.616,8.782,19.616,19.616v15.056H15.208v-15.056c0-10.833,8.782-19.615,19.615-19.615h23.983
	c4.199,0,7.604-3.405,7.604-7.604l0,0c0-4.199-3.405-7.604-7.604-7.604H34.823C15.591,188.898,0,204.489,0,223.721V418.68
	c0,19.232,15.591,34.823,34.823,34.823h442.353c19.233,0,34.824-15.591,34.824-34.824v-22.66v-49.88v-49.879v-49.88v-22.66
	C512,204.489,496.409,188.898,477.177,188.898z M496.792,288.657h-44.386v-34.672h44.386V288.657z M392.812,288.657v-34.672h44.385
	v34.672H392.812z M353.367,338.537v-34.672h44.385v34.672H353.367z M333.219,388.416v-34.672h44.386v34.672H333.219z
	 M214.032,388.416v-34.672h44.385v34.672H214.032z M94.846,388.416v-34.672h44.385v34.672H94.846z M159.378,303.865v34.672h-44.385
	v-34.672H159.378z M218.973,303.865v34.672h-44.386v-34.672H218.973z M154.438,388.416v-34.672h44.386v34.672H154.438z
	 M234.181,338.537v-34.672h44.385v34.672H234.181z M293.773,303.865h44.386v34.672h-44.386V303.865z M377.605,288.657h-44.386
	v-34.672h44.386V288.657z M318.011,288.657h-44.385v-34.672h44.385L318.011,288.657L318.011,288.657z M258.418,288.657h-44.385
	v-34.672h44.385V288.657z M198.824,288.657h-44.386v-34.672h44.386L198.824,288.657L198.824,288.657z M139.231,288.657H94.846
	v-34.672h44.385V288.657z M99.785,303.865v34.672H55.399v-34.672H99.785z M40.191,338.537H15.208v-34.672h24.984V338.537z
	 M79.638,353.745v34.672h-64.43v-34.672H79.638z M48.654,403.624h44.385v34.672H48.654V403.624z M108.248,403.624h44.386v34.672
	h-44.386V403.624z M167.842,403.624h110.973c4.199,0,7.604-3.405,7.604-7.604l0,0c0-4.199-3.405-7.604-7.604-7.604h-5.189v-34.672
	h44.385v34.672h-3.71c-4.199,0-7.604,3.405-7.604,7.604l0,0c0,4.199,3.405,7.604,7.604,7.604h13.215v34.672H167.842V403.624z
	 M342.724,403.624h44.385v34.672h-44.385L342.724,403.624L342.724,403.624z M402.316,403.624h44.386v34.672h-44.386V403.624z
	 M392.812,388.416v-34.672h44.385v34.672H392.812z M412.96,338.537v-34.672h44.385v34.672H412.96z M79.638,253.986v34.672h-64.43
	v-34.672H79.638z M15.208,418.68v-15.056h18.238v34.602C23.273,437.514,15.208,429.032,15.208,418.68z M477.176,438.296H461.91
	v-34.672h34.882v15.056C496.792,429.496,487.992,438.296,477.176,438.296z M496.792,388.416h-44.386v-34.672h12.544
	c4.2,0,7.604-3.405,7.604-7.604v-42.275h24.238v42.276V388.416z"/>
<g>
</g>
<g>
</g>
<g>
</g>
<g>
</g>
<g>
</g>
<g>
</g>
<g>
</g>
<g>
</g>
<g>
</g>
<g>
</g>
<g>
</g>
<g>
</g>
<g>
</g>
<g>
</g>
<g>
</g>
</svg>
