<svg height="512pt" viewBox="0 -20 512 512" width="512pt" xmlns="http://www.w3.org/2000/svg"><path d="m502 442v-412c0-11.046875-8.953125-20-20-20h-305.367188c-11.042968 0-20 8.953125-20 20v412c0 11.046875 8.957032 20 20 20h305.367188c11.046875 0 20-8.953125 20-20zm0 0" fill="#6d6fab"/><g fill="#fff"><path d="m231.9375 202v202c0 13.253906 10.746094 24 24 24 13.257812 0 24-10.746094 24-24v-336c0-13.253906-10.742188-24-24-24-13.253906 0-24 10.746094-24 24zm0 0"/><path d="m386.355469 202v202c0 13.253906 10.742187 24 24 24 13.253906 0 24-10.746094 24-24v-336c0-13.253906-10.746094-24-24-24-13.257813 0-24 10.746094-24 24zm0 0"/><path d="m77.9375 202v202c0 13.253906 10.746094 24 24 24 13.257812 0 24-10.746094 24-24v-336c0-13.253906-10.742188-24-24-24-13.253906 0-24 10.746094-24 24zm0 0"/></g><path d="m123.25 81.933594c-23.730469 8.699218-40.667969 31.488281-40.667969 58.234375 0 26.746093 16.9375 49.535156 40.667969 58.230469 23.730469-8.695313 40.667969-31.484376 40.667969-58.230469 0-26.746094-16.9375-49.535157-40.667969-58.234375zm0 0" fill="#69d2f7"/><path d="m236.917969 235.667969c0-26.683594 16.855469-49.425781 40.5-58.167969-6.699219-2.476562-13.941407-3.832031-21.5-3.832031-34.242188 0-62 27.757812-62 62 0 34.242187 27.757812 62 62 62 7.558593 0 14.800781-1.359375 21.5-3.835938-23.644531-8.742187-40.5-31.484375-40.5-58.164062zm0 0" fill="#fff"/><path d="m317.917969 235.667969c0-26.683594-16.859375-49.425781-40.5-58.167969-23.644531 8.742188-40.5 31.484375-40.5 58.167969 0 26.679687 16.855469 49.421875 40.5 58.164062 23.640625-8.742187 40.5-31.484375 40.5-58.164062zm0 0" fill="#fc5271"/><path d="m391.667969 337c0-26.617188 16.777343-49.3125 40.332031-58.101562-6.746094-2.515626-14.042969-3.898438-21.667969-3.898438-34.242187 0-62 27.757812-62 62s27.761719 62 62 62c7.625 0 14.921875-1.382812 21.667969-3.898438-23.554688-8.789062-40.332031-31.484374-40.332031-58.101562zm0 0" fill="#fff"/><path d="m472.332031 337c0-26.617188-16.777343-49.3125-40.332031-58.101562-23.554688 8.789062-40.332031 31.484374-40.332031 58.101562s16.777343 49.3125 40.332031 58.101562c23.554688-8.789062 40.332031-31.484374 40.332031-58.101562zm0 0" fill="#75d888"/><path d="m203.996094 236.082031v-.164062c0-5.523438-4.480469-10-10-10-5.523438 0-10 4.476562-10 10v.164062c0 5.523438 4.476562 10 10 10 5.519531 0 10-4.476562 10-10zm0 0"/><path d="m290 172.554688v-104.554688c0-18.746094-15.253906-34-34-34s-34 15.253906-34 34v104.527344c-12.28125 6.582031-22.617188 16.699218-29.46875 29.460937-2.609375 4.867188-.785156 10.929688 4.082031 13.542969 4.863281 2.609375 10.925781.785156 13.539063-4.082031 9.089844-16.929688 26.65625-27.449219 45.84375-27.449219 28.671875 0 52 23.328125 52 52s-23.328125 52-52 52c-19.800782 0-37.617188-11.007812-46.503906-28.726562-2.476563-4.933594-8.484376-6.929688-13.421876-4.453126-4.9375 2.476563-6.933593 8.484376-4.457031 13.421876 6.847657 13.652343 17.53125 24.421874 30.386719 31.289062v104.46875c0 18.746094 15.253906 34 34 34s34-15.253906 34-34v-104.554688c22.597656-12.160156 37.996094-36.035156 37.996094-63.445312s-15.398438-51.285156-37.996094-63.445312zm-48-7.179688v-97.375c0-7.71875 6.28125-14 14-14s14 6.28125 14 14v97.378906c-4.53125-.898437-9.214844-1.378906-14.003906-1.378906-4.757813 0-9.4375.472656-13.996094 1.375zm28 238.625c0 7.71875-6.28125 14-14 14s-14-6.28125-14-14v-97.359375c4.550781.886719 9.230469 1.359375 13.996094 1.359375 4.789062 0 9.472656-.480469 14.003906-1.378906zm0 0"/><path d="m49.9375 140.082031v-.164062c0-5.523438-4.476562-10-10-10s-10 4.476562-10 10v.164062c0 5.523438 4.476562 10 10 10s10-4.476562 10-10zm0 0"/><path d="m135.9375 76.554688v-8.554688c0-18.746094-15.25-34-34-34-18.746094 0-34 15.253906-34 34v8.53125c-12.277344 6.578125-22.613281 16.699219-29.460938 29.457031-2.613281 4.867188-.785156 10.929688 4.078126 13.542969 4.867187 2.609375 10.929687.785156 13.542968-4.082031 9.085938-16.929688 26.652344-27.449219 45.839844-27.449219 28.671875 0 52 23.328125 52 52s-23.328125 52-52 52c-19.796875 0-37.617188-11.007812-46.503906-28.726562-2.476563-4.933594-8.484375-6.929688-13.421875-4.453126-4.9375 2.476563-6.933594 8.484376-4.453125 13.421876 6.84375 13.652343 17.527344 24.417968 30.378906 31.285156v200.472656c0 18.746094 15.253906 34 34 34 18.75 0 34-15.253906 34-34v-200.554688c22.601562-12.160156 38-36.035156 38-63.445312s-15.402344-51.285156-38-63.445312zm-48-7.179688v-1.375c0-7.71875 6.28125-14 14-14s14 6.28125 14 14v1.378906c-4.53125-.898437-9.210938-1.378906-14-1.378906-4.757812 0-9.441406.476562-14 1.375zm28 334.625c0 7.71875-6.28125 14-14 14s-14-6.28125-14-14v-193.363281c4.550781.890625 9.234375 1.363281 14 1.363281 4.789062 0 9.46875-.480469 14-1.378906zm0 0"/><path d="m472 326.730469c-5.523438 0-10 4.476562-10 10v.164062c0 5.523438 4.476562 10 10 10s10-4.476562 10-10v-.164062c0-5.523438-4.476562-10-10-10zm0 0"/><path d="m469.382812 357.285156c-4.867187-2.613281-10.929687-.785156-13.539062 4.082032-9.089844 16.929687-26.65625 27.449218-45.84375 27.449218-28.671875 0-52-23.328125-52-52 0-28.675781 23.328125-52 52-52 19.796875 0 37.617188 11.003906 46.503906 28.722656 2.476563 4.9375 8.484375 6.933594 13.421875 4.457032 4.9375-2.476563 6.933594-8.484375 4.457031-13.421875-6.847656-13.652344-17.53125-24.417969-30.382812-31.289063v-205.285156c0-18.746094-15.253906-34-34-34s-34 15.253906-34 34v205.367188c-22.601562 12.160156-38 36.035156-38 63.445312 0 27.414062 15.398438 51.289062 38 63.449219v3.738281c0 18.746094 15.253906 34 34 34s34-15.253906 34-34v-3.71875c12.277344-6.578125 22.613281-16.695312 29.464844-29.457031 2.609375-4.867188.78125-10.929688-4.082032-13.539063zm-73.382812-289.285156c0-7.71875 6.28125-14 14-14s14 6.28125 14 14v198.175781c-4.550781-.890625-9.230469-1.363281-14-1.363281-4.789062 0-9.46875.484375-14 1.378906zm14 350c-6.503906 0-11.96875-4.460938-13.535156-10.480469 4.386718.839844 8.90625 1.292969 13.535156 1.292969 4.59375 0 9.121094-.445312 13.53125-1.285156-1.566406 6.015625-7.03125 10.472656-13.53125 10.472656zm0 0"/><path d="m482 0h-452c-16.542969 0-30 13.457031-30 30v412c0 16.542969 13.457031 30 30 30h452c16.542969 0 30-13.457031 30-30v-412c0-16.542969-13.457031-30-30-30zm10 442c0 5.515625-4.484375 10-10 10h-452c-5.515625 0-10-4.484375-10-10v-412c0-5.515625 4.484375-10 10-10h452c5.515625 0 10 4.484375 10 10zm0 0"/></svg>