<svg width="38" height="36" viewBox="0 0 38 36" fill="none" xmlns="http://www.w3.org/2000/svg">
<path d="M27.2 13.5C27.2 18.6 23.6 22.8 19.2 22.8C14.8 22.8 11.2 18.6 11.2 13.5C11.2 8.3 14.8 4.20001 19.2 4.20001C23.6 4.20001 27.2 8.4 27.2 13.5Z" fill="#2F7EF2"/>
<path d="M26 20.8L25.4 18.8L31.9 16.9C34 16.3 35.4 14.2 35.1 12L34.5 6.80002L36.6 6.60001L37.2 11.8C37.6 15 35.6 18 32.4 18.9L26 20.8Z" fill="#2F7EF2"/>
<path d="M35.4 29L33.3 28.7L33.5 27.7C33.8 26.1 32.8 24.5 31.2 24L26.2 22.6L26.8 20.6L31.8 22C34.4 22.8 36.1 25.4 35.6 28.1L35.4 29Z" fill="#2F7EF2"/>
<path d="M25.7 19.2L24.2 17.7L28.3 13.6C29.5 12.4 29.7 10.4 28.7 9.10001L24.1 2.89999L25.8 1.60001L30.4 7.80002C32 10 31.8 13.2 29.8 15.1L25.7 19.2Z" fill="#2F7EF2"/>
<path d="M30.5 34.5L28.5 33.8V33.7C29 32.3 28.3 30.8 27 30.2L23.3 28.6L24.1 26.6L27.8 28.2C30.2 29.3 31.4 32 30.5 34.5Z" fill="#2F7EF2"/>
<path d="M12.3 20.8L5.79998 18.9C2.69998 18 0.699996 15 0.999996 11.8L1.6 6.60001L3.70001 6.80002L3.1 12C2.8 14.2 4.19998 16.2 6.29998 16.9L12.8 18.8L12.3 20.8Z" fill="#2F7EF2"/>
<path d="M2.9 29L2.70002 27.9C2.30002 25.2 3.9 22.6 6.5 21.8L11.5 20.4L12.1 22.4L7.10001 23.8C5.50001 24.3 4.49999 25.8 4.79999 27.5L5 28.5L2.9 29Z" fill="#2F7EF2"/>
<path d="M12.6 19.2L8.50001 15.1C6.50001 13.2 6.30001 10 7.90001 7.80002L12.5 1.60001L14.2 2.89999L9.60002 9.10001C8.60002 10.5 8.70001 12.4 10 13.6L14.1 17.7L12.6 19.2Z" fill="#2F7EF2"/>
<path d="M7.8 34.5C6.9 32 8 29.2 10.4 28.2L14.1 26.6L14.9 28.6L11.2 30.2C9.80002 30.8 9.20002 32.3 9.70002 33.7V33.8L7.8 34.5Z" fill="#2F7EF2"/>
<path d="M14.7 16.9C14.7 15.7 16.7 14.7 19.2 14.7C21.7 14.7 23.7 15.7 23.7 16.9" fill="#020202"/>
<path d="M30.4 22.3C30.4 28 25.5 32.6 19.5 32.6C13.5 32.6 8.60001 28 8.60001 22.3C8.60001 16.6 13.5 12 19.5 12C25.5 12 30.4 16.6 30.4 22.3Z" fill="#429DF8"/>
<path d="M16.9 22.7H20.9V21.4H16.9V22.7Z" fill="#13497F"/>
<path d="M18.1 20.5C18.1 22.6 16.2 24.3 13.8 24.3C11.4 24.3 9.5 22.6 9.5 20.5C9.5 18.4 11.4 16.7 13.8 16.7C16.2 16.7 18.1 18.4 18.1 20.5Z" fill="white"/>
<path d="M13.8 17C11.5 17 9.70001 18.6 9.70001 20.6C9.70001 22.6 11.5 24.2 13.8 24.2C16.1 24.2 17.9 22.6 17.9 20.6C17.9 18.6 16.1 17 13.8 17ZM13.8 24.6C11.3 24.6 9.20001 22.8 9.20001 20.6C9.20001 18.4 11.2 16.6 13.8 16.6C16.3 16.6 18.4 18.4 18.4 20.6C18.4 22.8 16.3 24.6 13.8 24.6Z" fill="#13497F"/>
<path d="M16.9 20.5C16.9 22 15.5 23.2 13.8 23.2C12.1 23.2 10.7 22 10.7 20.5C10.7 19 12.1 17.8 13.8 17.8C15.5 17.7 16.9 19 16.9 20.5Z" fill="white"/>
<path d="M30.6 20.5C30.6 23.1 28.2 25.3 25.2 25.3C22.2 25.3 19.8 23.2 19.8 20.5C19.8 17.9 22.2 15.7 25.2 15.7C28.1 15.7 30.6 17.8 30.6 20.5Z" fill="white"/>
<path d="M25.1 15.9C22.2 15.9 19.9 17.9 19.9 20.4C19.9 22.9 22.2 24.9 25.1 24.9C28 24.9 30.3 22.9 30.3 20.4C30.3 18 28 15.9 25.1 15.9ZM25.1 25.5C22 25.5 19.4 23.3 19.4 20.5C19.4 17.7 22 15.5 25.1 15.5C28.2 15.5 30.8 17.7 30.8 20.5C30.8 23.3 28.3 25.5 25.1 25.5Z" fill="#13497F"/>
<path d="M29.2 20.8C29.2 22.8 27.4 24.3 25.1 24.3C22.9 24.3 21 22.7 21 20.8C21 18.9 22.8 17.3 25.1 17.3C27.4 17.3 29.2 18.9 29.2 20.8Z" fill="white"/>
<path d="M26.6 21C26.6 21.7 25.9 22.3 25.1 22.3C24.3 22.3 23.6 21.7 23.6 21C23.6 20.3 24.3 19.7 25.1 19.7C26 19.7 26.6 20.3 26.6 21Z" fill="#2F7EF2"/>
<path d="M14.9 21C14.9 21.7 14.2 22.3 13.4 22.3C12.6 22.3 11.9 21.7 11.9 21C11.9 20.3 12.6 19.7 13.4 19.7C14.2 19.7 14.9 20.3 14.9 21Z" fill="#2F7EF2"/>
<path d="M15.7 27.9C15.7 27.9 15.8 28 15.9 28.2C16 28.3 16.1 28.3 16.2 28.4C16.3 28.5 16.4 28.5 16.6 28.6C16.7 28.6 16.7 28.7 16.8 28.7C16.9 28.7 17 28.7 17 28.8C17.1 28.8 17.2 28.8 17.3 28.9C17.4 28.9 17.5 28.9 17.6 28.9C17.8 28.9 18 28.9 18.2 28.9C18.3 28.9 18.4 28.9 18.5 28.9H18.8H19.1H19.3H19.4C19.6 28.9 19.8 28.9 20 28.9C20.1 28.9 20.2 28.9 20.3 28.9C20.4 28.9 20.5 28.9 20.6 28.8C20.7 28.8 20.8 28.8 20.8 28.7C20.9 28.7 20.9 28.6 21 28.6C21.1 28.5 21.3 28.5 21.4 28.4C21.5 28.3 21.6 28.3 21.7 28.2C21.8 28.1 21.9 27.9 21.9 27.9C21.9 27.9 21.9 27.9 21.9 28C21.9 28.1 21.9 28.2 21.9 28.3C21.9 28.4 21.9 28.6 21.8 28.7C21.7 28.9 21.6 29 21.5 29.2C21.4 29.3 21.4 29.4 21.3 29.4C21.2 29.5 21.1 29.5 21 29.6C20.9 29.7 20.8 29.7 20.7 29.8C20.6 29.9 20.5 29.9 20.4 30C20.2 30.1 19.9 30.2 19.6 30.2H19.4C19.3 30.2 19.3 30.2 19.2 30.2H18.9H18.5C18.4 30.2 18.2 30.2 18.1 30.2C17.8 30.2 17.6 30.1 17.4 30C17.3 29.9 17.2 29.9 17.1 29.8C17 29.7 16.9 29.7 16.8 29.6C16.7 29.5 16.6 29.5 16.5 29.4C16.4 29.3 16.3 29.2 16.3 29.2C16.2 29 16.1 28.9 16 28.7C15.9 28.5 15.9 28.4 15.9 28.3C15.7 28.2 15.7 28.1 15.7 27.9C15.7 27.9 15.7 28 15.7 27.9Z" fill="white"/>
<path d="M30.9 34.1C30.9 35.1 30.1 35.9 29.1 35.9C28.1 35.9 27.3 35.1 27.3 34.1C27.3 33.1 28.1 32.3 29.1 32.3C30.1 32.4 30.9 33.2 30.9 34.1Z" fill="#2F7EF2"/>
<path d="M36 28.8C36 29.8 35.2 30.6 34.2 30.6C33.2 30.6 32.4 29.8 32.4 28.8C32.4 27.8 33.2 27 34.2 27C35.2 27.1 36 27.8 36 28.8Z" fill="#2F7EF2"/>
<path d="M37.3 6.70001C37.3 7.70001 36.5 8.5 35.5 8.5C34.5 8.5 33.7 7.70001 33.7 6.70001C33.7 5.70001 34.5 4.89999 35.5 4.89999C36.5 4.99999 37.3 5.80001 37.3 6.70001Z" fill="#2F7EF2"/>
<path d="M26.7 2.20001C26.7 3.20001 25.9 4 24.9 4C23.9 4 23.1 3.20001 23.1 2.20001C23.1 1.20001 23.9 0.399994 24.9 0.399994C25.9 0.499994 26.7 1.20001 26.7 2.20001Z" fill="#2F7EF2"/>
<path d="M15.2 2.20001C15.2 3.20001 14.4 4 13.4 4C12.4 4 11.6 3.20001 11.6 2.20001C11.6 1.20001 12.4 0.399994 13.4 0.399994C14.4 0.499994 15.2 1.20001 15.2 2.20001Z" fill="#2F7EF2"/>
<path d="M4.29999 6.70001C4.29999 7.70001 3.5 8.5 2.5 8.5C1.5 8.5 0.700012 7.70001 0.700012 6.70001C0.700012 5.70001 1.5 4.89999 2.5 4.89999C3.5 4.99999 4.29999 5.80001 4.29999 6.70001Z" fill="#2F7EF2"/>
<path d="M5.60001 28.8C5.60001 29.8 4.79999 30.6 3.79999 30.6C2.79999 30.6 2 29.8 2 28.8C2 27.8 2.79999 27 3.79999 27C4.79999 27 5.60001 27.8 5.60001 28.8Z" fill="#2F7EF2"/>
<path d="M10.7 34.1C10.7 35.1 9.89999 35.9 8.89999 35.9C7.89999 35.9 7.10001 35.1 7.10001 34.1C7.10001 33.1 7.89999 32.3 8.89999 32.3C9.89999 32.4 10.7 33.2 10.7 34.1Z" fill="#2F7EF2"/>
</svg>
