<svg width="1764" height="1351" xmlns="http://www.w3.org/2000/svg" xmlns:xlink="http://www.w3.org/1999/xlink">
 <title>star-bg</title>
 <defs>
  <path d="m6.23,0.067l0,5.623l-5.62,0l0,-5.624l5.62,0l0,0.001z" id="a"/>
  <path d="m0.67,0.697l9.937,0l0,9.938l-9.937,0l0,-9.938z" id="c"/>
  <path d="m6.23,0.067l0,5.623l-5.62,0l0,-5.624l5.62,0l0,0.001z" id="e"/>
 </defs>
 <g>
  <title>background</title>
  <rect fill="none" id="canvas_background" height="402" width="582" y="-1" x="-1"/>
 </g>
 <g>
  <title>Layer 1</title>
  <path id="svg_2" fill="#D15D64" d="m717.978,92.117l2.756,1.507a0.394,0.394 0 0 1 0,0.69l-2.756,1.508a0.4,0.4 0 0 0 -0.156,0.156l-1.507,2.756a0.393,0.393 0 0 1 -0.69,0l-1.508,-2.755a0.395,0.395 0 0 0 -0.157,-0.16l-2.755,-1.505a0.394,0.394 0 0 1 0,-0.69l2.755,-1.508a0.393,0.393 0 0 0 0.157,-0.157l1.507,-2.754a0.393,0.393 0 0 1 0.69,0l1.508,2.754c0.036,0.067 0.09,0.12 0.156,0.157"/>
  <path id="svg_3" fill="#FCD05C" d="m239.057,166.72l1.36,0.745a0.395,0.395 0 0 1 0,0.692l-1.36,0.743a0.4,0.4 0 0 0 -0.156,0.157l-0.743,1.36a0.394,0.394 0 0 1 -0.692,0l-0.743,-1.36a0.395,0.395 0 0 0 -0.157,-0.157l-1.36,-0.743a0.395,0.395 0 0 1 0,-0.692l1.36,-0.744a0.393,0.393 0 0 0 0.157,-0.155l0.743,-1.36a0.395,0.395 0 0 1 0.692,0l0.744,1.36c0.037,0.066 0.092,0.12 0.157,0.156"/>
  <path id="svg_4" stroke-linejoin="round" stroke-linecap="round" stroke-width="1.097" stroke="#7B63AB" d="m409.472,108l-1.472,1.47m5.47,-5.47l-1.47,1.472m-2.457,2.691a1.852,1.852 0 1 0 2.62,-2.62a1.852,1.852 0 1 0 -2.62,2.62z"/>
  <path id="svg_5" fill="#D15D64" d="m961.978,138.117l2.756,1.507a0.394,0.394 0 0 1 0,0.69l-2.756,1.507a0.4,0.4 0 0 0 -0.156,0.16l-1.507,2.754a0.393,0.393 0 0 1 -0.69,0l-1.508,-2.756a0.395,0.395 0 0 0 -0.157,-0.157l-2.755,-1.505a0.394,0.394 0 0 1 0,-0.69l2.755,-1.508a0.393,0.393 0 0 0 0.157,-0.156l1.507,-2.755a0.393,0.393 0 0 1 0.69,0l1.508,2.755c0.036,0.066 0.09,0.12 0.156,0.156"/>
  <path id="svg_6" fill="#E98333" d="m1144.978,177.117l2.755,1.507a0.394,0.394 0 0 1 0,0.69l-2.755,1.508a0.397,0.397 0 0 0 -0.156,0.156l-1.506,2.756a0.393,0.393 0 0 1 -0.692,0l-1.506,-2.756a0.402,0.402 0 0 0 -0.16,-0.156l-2.753,-1.507a0.393,0.393 0 0 1 0,-0.69l2.755,-1.508a0.402,0.402 0 0 0 0.158,-0.156l1.506,-2.755a0.394,0.394 0 0 1 0.69,0l1.508,2.756c0.037,0.066 0.09,0.12 0.157,0.157"/>
  <path id="svg_7" fill="#FCD05C" d="m1083.057,100.72l1.36,0.745a0.395,0.395 0 0 1 0,0.692l-1.36,0.743a0.4,0.4 0 0 0 -0.156,0.157l-0.743,1.36a0.394,0.394 0 0 1 -0.692,0l-0.743,-1.36a0.395,0.395 0 0 0 -0.157,-0.157l-1.36,-0.743a0.395,0.395 0 0 1 0,-0.692l1.36,-0.744a0.393,0.393 0 0 0 0.157,-0.155l0.743,-1.36a0.395,0.395 0 0 1 0.692,0l0.744,1.36c0.037,0.066 0.092,0.12 0.157,0.156"/>
  <path id="svg_8" fill="#D15D64" d="m1206.813,253.907a2.907,2.907 0 1 1 -5.815,-0.003a2.907,2.907 0 0 1 5.815,0.003m-1091.835,65.209l2.756,1.507a0.394,0.394 0 0 1 0,0.692l-2.756,1.507a0.4,0.4 0 0 0 -0.156,0.156l-1.507,2.755a0.393,0.393 0 0 1 -0.69,0l-1.508,-2.755a0.395,0.395 0 0 0 -0.157,-0.156l-2.755,-1.507a0.394,0.394 0 0 1 0,-0.692l2.755,-1.507a0.393,0.393 0 0 0 0.157,-0.155l1.507,-2.755a0.393,0.393 0 0 1 0.69,0l1.508,2.756c0.036,0.067 0.09,0.12 0.156,0.156"/>
  <path id="svg_9" fill="#FCD05C" d="m206.057,452.72l1.36,0.745a0.395,0.395 0 0 1 0,0.692l-1.36,0.743a0.4,0.4 0 0 0 -0.156,0.157l-0.743,1.36a0.394,0.394 0 0 1 -0.692,0l-0.743,-1.36a0.395,0.395 0 0 0 -0.157,-0.157l-1.36,-0.743a0.395,0.395 0 0 1 0,-0.692l1.36,-0.744a0.393,0.393 0 0 0 0.157,-0.155l0.743,-1.36a0.395,0.395 0 0 1 0.692,0l0.744,1.36c0.037,0.066 0.092,0.12 0.157,0.156"/>
  <path id="svg_10" fill="#D15D64" d="m1661.978,527.116l2.755,1.508a0.395,0.395 0 0 1 0,0.692l-2.755,1.506a0.39,0.39 0 0 0 -0.156,0.157l-1.506,2.754a0.393,0.393 0 0 1 -0.692,0l-1.506,-2.755a0.39,0.39 0 0 0 -0.16,-0.158l-2.753,-1.506a0.394,0.394 0 0 1 0,-0.692l2.755,-1.508a0.39,0.39 0 0 0 0.158,-0.155l1.506,-2.755a0.393,0.393 0 0 1 0.69,0l1.508,2.755a0.39,0.39 0 0 0 0.157,0.156m-285.102,-426.47l1.3,0.71c0.26,0.144 0.26,0.52 0,0.66l-1.3,0.713a0.38,0.38 0 0 0 -0.15,0.148l-0.71,1.3a0.377,0.377 0 0 1 -0.66,0l-0.71,-1.3a0.386,0.386 0 0 0 -0.152,-0.148l-1.3,-0.712a0.377,0.377 0 0 1 0,-0.66l1.3,-0.71a0.39,0.39 0 0 0 0.15,-0.15l0.71,-1.3a0.376,0.376 0 0 1 0.662,0l0.71,1.3a0.384,0.384 0 0 0 0.15,0.15"/>
  <path id="svg_11" fill="#FCD05C" d="m1634.057,382.72l1.36,0.745a0.395,0.395 0 0 1 0,0.692l-1.36,0.743a0.4,0.4 0 0 0 -0.156,0.157l-0.743,1.36a0.394,0.394 0 0 1 -0.692,0l-0.743,-1.36a0.395,0.395 0 0 0 -0.157,-0.157l-1.36,-0.743a0.395,0.395 0 0 1 0,-0.692l1.36,-0.744a0.393,0.393 0 0 0 0.157,-0.155l0.743,-1.36a0.395,0.395 0 0 1 0.692,0l0.744,1.36c0.037,0.066 0.092,0.12 0.157,0.156"/>
  <path id="svg_12" d="m411,385.888l3.554,-0.888l-0.887,3.554l-2.667,-2.666z" stroke-linejoin="round" stroke-linecap="round" stroke-width="1.097" stroke="#E98333"/>
  <path id="svg_13" d="m522.226,503.018l2.018,1.104l-2.018,1.103l-1.104,2.018l-1.104,-2.018l-2.018,-1.103l2.018,-1.104l1.104,-2.018l1.104,2.018z" fill="#00A959"/>
  <path id="svg_14" fill="#E98333" d="m530.98,40.117l2.754,1.507a0.394,0.394 0 0 1 0,0.69l-2.755,1.508a0.397,0.397 0 0 0 -0.158,0.156l-1.506,2.756a0.393,0.393 0 0 1 -0.692,0l-1.507,-2.756a0.402,0.402 0 0 0 -0.157,-0.156l-2.755,-1.507a0.393,0.393 0 0 1 0,-0.69l2.755,-1.508a0.402,0.402 0 0 0 0.157,-0.156l1.508,-2.755a0.394,0.394 0 0 1 0.69,0l1.507,2.756c0.037,0.066 0.09,0.12 0.157,0.157"/>
  <path id="svg_15" stroke-linejoin="round" stroke-linecap="round" stroke-width="1.097" stroke="#7B63AB" d="m653.86,202.256l-0.847,-1.6a0.44,0.44 0 0 0 -0.18,-0.18l-1.6,-0.848a0.434,0.434 0 0 1 0,-0.768l1.6,-0.847a0.442,0.442 0 0 0 0.18,-0.18l0.847,-1.6a0.435,0.435 0 0 1 0.77,0l0.845,1.6a0.44,0.44 0 0 0 0.18,0.18l1.6,0.847c0.31,0.163 0.31,0.605 0,0.768l-1.6,0.847a0.436,0.436 0 0 0 -0.18,0.18l-0.846,1.6a0.435,0.435 0 0 1 -0.77,0l0.001,0.001z"/>
  <path id="svg_16" fill="#D15D64" d="m593.978,161.117l2.756,1.507a0.394,0.394 0 0 1 0,0.69l-2.756,1.507a0.4,0.4 0 0 0 -0.156,0.16l-1.507,2.754a0.393,0.393 0 0 1 -0.69,0l-1.508,-2.756a0.395,0.395 0 0 0 -0.157,-0.157l-2.755,-1.505a0.394,0.394 0 0 1 0,-0.69l2.755,-1.508a0.393,0.393 0 0 0 0.157,-0.156l1.507,-2.755a0.393,0.393 0 0 1 0.69,0l1.508,2.755c0.036,0.066 0.09,0.12 0.156,0.156"/>
  <path id="svg_17" fill="#E98333" d="m177.98,127.117l2.754,1.507a0.394,0.394 0 0 1 0,0.69l-2.756,1.508a0.397,0.397 0 0 0 -0.156,0.156l-1.507,2.756a0.393,0.393 0 0 1 -0.69,0l-1.507,-2.756a0.402,0.402 0 0 0 -0.16,-0.156l-2.752,-1.507a0.393,0.393 0 0 1 0,-0.69l2.754,-1.508a0.402,0.402 0 0 0 0.157,-0.156l1.508,-2.755a0.394,0.394 0 0 1 0.69,0l1.507,2.756c0.036,0.066 0.09,0.12 0.156,0.157"/>
  <path id="svg_18" fill="#D15D64" d="m299.813,56.907a2.907,2.907 0 1 1 -5.815,-0.003a2.907,2.907 0 0 1 5.815,0.003"/>
  <path id="svg_19" stroke-linejoin="round" stroke-linecap="round" stroke-width="1.097" stroke="#7B63AB" d="m50.86,205.256l-0.847,-1.6a0.44,0.44 0 0 0 -0.18,-0.18l-1.6,-0.848a0.434,0.434 0 0 1 0,-0.768l1.6,-0.847a0.442,0.442 0 0 0 0.18,-0.18l0.847,-1.6a0.435,0.435 0 0 1 0.77,0l0.845,1.6a0.44,0.44 0 0 0 0.18,0.18l1.6,0.847c0.31,0.163 0.31,0.605 0,0.768l-1.6,0.847a0.436,0.436 0 0 0 -0.18,0.18l-0.846,1.6a0.435,0.435 0 0 1 -0.77,0l0.001,0.001z"/>
  <path id="svg_20" fill="#D15D64" d="m1690.978,261.116l2.755,1.507a0.395,0.395 0 0 1 0,0.692l-2.755,1.507a0.39,0.39 0 0 0 -0.156,0.156l-1.506,2.755a0.393,0.393 0 0 1 -0.692,0l-1.506,-2.755a0.39,0.39 0 0 0 -0.16,-0.156l-2.753,-1.507a0.394,0.394 0 0 1 0,-0.692l2.755,-1.507a0.39,0.39 0 0 0 0.158,-0.155l1.506,-2.755a0.393,0.393 0 0 1 0.69,0l1.508,2.756a0.39,0.39 0 0 0 0.157,0.156"/>
  <path id="svg_21" fill="#7B63AB" d="m1637.057,223.722l1.36,0.743a0.395,0.395 0 0 1 0,0.692l-1.36,0.744a0.397,0.397 0 0 0 -0.156,0.157l-0.743,1.36a0.395,0.395 0 0 1 -0.692,0l-0.743,-1.36a0.393,0.393 0 0 0 -0.157,-0.156l-1.36,-0.743a0.395,0.395 0 0 1 0,-0.692l1.36,-0.743a0.395,0.395 0 0 0 0.157,-0.157l0.743,-1.36a0.395,0.395 0 0 1 0.692,0l0.744,1.36a0.4,0.4 0 0 0 0.157,0.157"/>
  <path id="svg_22" fill="#D15D64" d="m1611.877,48.645l1.3,0.71c0.26,0.145 0.26,0.52 0,0.662l-1.3,0.71a0.38,0.38 0 0 0 -0.15,0.15l-0.71,1.3a0.377,0.377 0 0 1 -0.66,0l-0.71,-1.3a0.386,0.386 0 0 0 -0.152,-0.15l-1.3,-0.71a0.377,0.377 0 0 1 0,-0.662l1.3,-0.71a0.39,0.39 0 0 0 0.15,-0.15l0.71,-1.298a0.376,0.376 0 0 1 0.662,0l0.71,1.298a0.384,0.384 0 0 0 0.15,0.15"/>
  <path id="svg_23" fill="#FCD05C" d="m1663.057,116.72l1.36,0.745a0.395,0.395 0 0 1 0,0.692l-1.36,0.743a0.4,0.4 0 0 0 -0.156,0.157l-0.743,1.36a0.394,0.394 0 0 1 -0.692,0l-0.743,-1.36a0.395,0.395 0 0 0 -0.157,-0.157l-1.36,-0.743a0.395,0.395 0 0 1 0,-0.692l1.36,-0.744a0.393,0.393 0 0 0 0.157,-0.155l0.743,-1.36a0.395,0.395 0 0 1 0.692,0l0.744,1.36c0.037,0.066 0.092,0.12 0.157,0.156"/>
  <g id="svg_24">
   <mask transform="translate(1580,434) " id="b">
    <use id="svg_25" xlink:href="#a"/>
   </mask>
   <path id="svg_26" mask="url(#b)" fill="#7B63AB" d="m1584.667,435.79l1.36,0.743a0.394,0.394 0 0 1 0,0.692l-1.36,0.743a0.4,0.4 0 0 0 -0.157,0.156l-0.743,1.36a0.394,0.394 0 0 1 -0.692,0l-0.744,-1.36a0.397,0.397 0 0 0 -0.155,-0.156l-1.36,-0.743a0.395,0.395 0 0 1 0,-0.692l1.36,-0.744a0.39,0.39 0 0 0 0.156,-0.157l0.745,-1.36a0.394,0.394 0 0 1 0.692,0l0.743,1.36c0.036,0.066 0.09,0.12 0.157,0.156"/>
  </g>
  <path id="svg_27" fill="#FCD05C" d="m1384.978,483.118l2.755,1.507a0.394,0.394 0 0 1 0,0.69l-2.755,1.507a0.393,0.393 0 0 0 -0.157,0.156l-1.505,2.755a0.393,0.393 0 0 1 -0.692,0l-1.506,-2.755a0.387,0.387 0 0 0 -0.158,-0.156l-2.755,-1.507a0.393,0.393 0 0 1 0,-0.69l2.755,-1.507a0.39,0.39 0 0 0 0.157,-0.157l1.506,-2.755a0.393,0.393 0 0 1 0.69,0l1.508,2.756c0.038,0.067 0.092,0.122 0.16,0.158"/>
  <path id="svg_28" fill="#D15D64" d="m1273.877,338.646l1.3,0.71c0.26,0.144 0.26,0.52 0,0.66l-1.3,0.712a0.38,0.38 0 0 0 -0.15,0.15l-0.71,1.298a0.377,0.377 0 0 1 -0.66,0l-0.71,-1.3a0.386,0.386 0 0 0 -0.152,-0.148l-1.3,-0.712a0.377,0.377 0 0 1 0,-0.66l1.3,-0.71a0.39,0.39 0 0 0 0.15,-0.15l0.71,-1.3a0.376,0.376 0 0 1 0.662,0l0.71,1.3a0.384,0.384 0 0 0 0.15,0.15"/>
  <path id="svg_29" fill="#FCD05C" d="m1494.057,406.72l1.36,0.745a0.395,0.395 0 0 1 0,0.692l-1.36,0.743a0.4,0.4 0 0 0 -0.156,0.157l-0.743,1.36a0.394,0.394 0 0 1 -0.692,0l-0.743,-1.36a0.395,0.395 0 0 0 -0.157,-0.157l-1.36,-0.743a0.395,0.395 0 0 1 0,-0.692l1.36,-0.744a0.393,0.393 0 0 0 0.157,-0.155l0.743,-1.36a0.395,0.395 0 0 1 0.692,0l0.744,1.36c0.037,0.066 0.092,0.12 0.157,0.156"/>
  <path id="svg_30" d="m1712,450.524l1.762,-0.542l1.762,0.542l-0.543,-1.762l0.544,-1.762l-1.762,0.543l-1.763,-0.543l0.542,1.762l-0.542,1.762z" stroke-linejoin="round" stroke-linecap="round" stroke-width="1.097" stroke="#00A959"/>
  <g id="svg_31">
   <mask transform="translate(1598,622) " id="d">
    <use id="svg_32" xlink:href="#c"/>
   </mask>
   <path id="svg_33" mask="url(#d)" fill="#D15D64" d="m1605.648,625.813l2.755,1.507a0.394,0.394 0 0 1 0,0.69l-2.755,1.51a0.39,0.39 0 0 0 -0.157,0.157l-1.506,2.753a0.394,0.394 0 0 1 -0.69,0l-1.51,-2.755a0.39,0.39 0 0 0 -0.157,-0.157l-2.755,-1.508a0.394,0.394 0 0 1 0,-0.69l2.757,-1.507a0.39,0.39 0 0 0 0.156,-0.157l1.507,-2.756a0.394,0.394 0 0 1 0.69,0l1.508,2.756a0.39,0.39 0 0 0 0.158,0.157"/>
  </g>
  <g id="svg_34" stroke-linejoin="round" stroke-linecap="round" stroke-width="1.097" stroke="#E98333">
   <path id="svg_35" d="m70.472,513l-1.472,1.47m5.47,-5.47l-1.47,1.47m-2.457,2.693a1.852,1.852 0 0 0 2.62,-2.62a1.852,1.852 0 0 0 -2.62,2.62z"/>
  </g>
  <path id="svg_36" fill="#FCD05C" d="m239.057,1200.9l1.36,-0.743a0.395,0.395 0 0 0 0,-0.692l-1.36,-0.743a0.4,0.4 0 0 1 -0.156,-0.157l-0.743,-1.36a0.394,0.394 0 0 0 -0.692,0l-0.743,1.36a0.395,0.395 0 0 1 -0.157,0.157l-1.36,0.743a0.395,0.395 0 0 0 0,0.692l1.36,0.744c0.066,0.037 0.12,0.09 0.157,0.157l0.743,1.36c0.15,0.273 0.542,0.273 0.692,0l0.744,-1.36a0.397,0.397 0 0 1 0.157,-0.156"/>
  <path id="svg_37" fill="#D15D64" d="m1206.813,1132.906a2.907,2.907 0 1 0 -5.815,0.003a2.907,2.907 0 0 0 5.815,-0.004m-1091.835,-97.083l2.756,-1.506a0.394,0.394 0 0 0 0,-0.692l-2.756,-1.507a0.4,0.4 0 0 1 -0.156,-0.157l-1.507,-2.755a0.393,0.393 0 0 0 -0.69,0l-1.508,2.755a0.395,0.395 0 0 1 -0.157,0.157l-2.755,1.507a0.394,0.394 0 0 0 0,0.69l2.755,1.508c0.066,0.036 0.12,0.09 0.157,0.157l1.507,2.753c0.15,0.274 0.542,0.274 0.69,0l1.508,-2.755a0.397,0.397 0 0 1 0.156,-0.156"/>
  <path id="svg_38" fill="#FCD05C" d="m206.057,793.9l1.36,-0.744a0.395,0.395 0 0 0 0,-0.692l-1.36,-0.743a0.4,0.4 0 0 1 -0.156,-0.156l-0.743,-1.36a0.394,0.394 0 0 0 -0.692,0l-0.743,1.36a0.395,0.395 0 0 1 -0.157,0.158l-1.36,0.742a0.395,0.395 0 0 0 0,0.692l1.36,0.745c0.066,0.037 0.12,0.09 0.157,0.156l0.743,1.36c0.15,0.273 0.542,0.273 0.692,0l0.744,-1.36a0.397,0.397 0 0 1 0.157,-0.156"/>
  <path id="svg_39" fill="#D15D64" d="m1455.978,1061.822l2.755,-1.506a0.395,0.395 0 0 0 0,-0.693l-2.755,-1.507a0.39,0.39 0 0 1 -0.156,-0.156l-1.506,-2.755a0.393,0.393 0 0 0 -0.692,0l-1.506,2.755a0.39,0.39 0 0 1 -0.16,0.156l-2.753,1.507a0.394,0.394 0 0 0 0,0.692l2.755,1.507a0.39,0.39 0 0 1 0.158,0.157l1.506,2.753c0.15,0.274 0.543,0.274 0.69,0l1.508,-2.755a0.39,0.39 0 0 1 0.157,-0.156"/>
  <path id="svg_40" fill="#7B63AB" d="m1402.057,1085.9l1.36,-0.743a0.395,0.395 0 0 0 0,-0.692l-1.36,-0.744a0.397,0.397 0 0 1 -0.156,-0.155l-0.743,-1.36a0.395,0.395 0 0 0 -0.692,0l-0.743,1.36a0.393,0.393 0 0 1 -0.157,0.156l-1.36,0.745a0.395,0.395 0 0 0 0,0.692l1.36,0.743c0.066,0.036 0.12,0.09 0.157,0.157l0.743,1.36c0.15,0.273 0.542,0.273 0.692,0l0.744,-1.36a0.4,0.4 0 0 1 0.157,-0.157"/>
  <path id="svg_41" d="m411,894.666l3.554,0.888l-0.887,-3.554l-2.667,2.666z" stroke-linejoin="round" stroke-linecap="round" stroke-width="1.097" stroke="#E98333"/>
  <path id="svg_42" d="m522.226,745.225l2.018,-1.104l-2.018,-1.102l-1.104,-2.018l-1.104,2.018l-2.018,1.101l2.018,1.105l1.104,2.018l1.104,-2.018z" fill="#00A959"/>
  <path id="svg_43" fill="#E98333" d="m177.98,1225.822l2.754,-1.506a0.394,0.394 0 0 0 0,-0.692l-2.756,-1.507a0.397,0.397 0 0 1 -0.156,-0.156l-1.507,-2.755a0.393,0.393 0 0 0 -0.69,0l-1.507,2.756a0.402,0.402 0 0 1 -0.16,0.157l-2.752,1.507a0.393,0.393 0 0 0 0,0.69l2.754,1.508c0.066,0.036 0.12,0.09 0.157,0.157l1.508,2.754c0.15,0.274 0.54,0.274 0.69,0l1.507,-2.755a0.397,0.397 0 0 1 0.156,-0.158"/>
  <path id="svg_44" fill="#D15D64" d="m299.813,1325.906a2.907,2.907 0 1 0 -5.815,0.003a2.907,2.907 0 0 0 5.815,-0.004"/>
  <path id="svg_45" stroke-linejoin="round" stroke-linecap="round" stroke-width="1.097" stroke="#7B63AB" d="m50.86,1174.232l-0.847,1.6a0.44,0.44 0 0 1 -0.18,0.18l-1.6,0.848a0.434,0.434 0 0 0 0,0.768l1.6,0.847c0.076,0.04 0.14,0.104 0.18,0.18l0.847,1.6c0.163,0.31 0.605,0.31 0.77,0l0.845,-1.6a0.44,0.44 0 0 1 0.18,-0.18l1.6,-0.847a0.434,0.434 0 0 0 0,-0.768l-1.6,-0.847a0.436,0.436 0 0 1 -0.18,-0.18l-0.846,-1.6a0.435,0.435 0 0 0 -0.77,0l0.001,-0.001z"/>
  <path id="svg_46" fill="#D15D64" d="m1690.978,1110.822l2.755,-1.506a0.395,0.395 0 0 0 0,-0.693l-2.755,-1.507a0.39,0.39 0 0 1 -0.156,-0.156l-1.506,-2.755a0.393,0.393 0 0 0 -0.692,0l-1.506,2.755a0.39,0.39 0 0 1 -0.16,0.156l-2.753,1.507a0.394,0.394 0 0 0 0,0.692l2.755,1.507a0.39,0.39 0 0 1 0.158,0.157l1.506,2.753c0.15,0.274 0.543,0.274 0.69,0l1.508,-2.755a0.39,0.39 0 0 1 0.157,-0.156"/>
  <path id="svg_47" fill="#7B63AB" d="m1637.057,1155.9l1.36,-0.743a0.395,0.395 0 0 0 0,-0.692l-1.36,-0.744a0.397,0.397 0 0 1 -0.156,-0.155l-0.743,-1.36a0.395,0.395 0 0 0 -0.692,0l-0.743,1.36a0.393,0.393 0 0 1 -0.157,0.156l-1.36,0.745a0.395,0.395 0 0 0 0,0.692l1.36,0.743c0.066,0.036 0.12,0.09 0.157,0.157l0.743,1.36c0.15,0.273 0.542,0.273 0.692,0l0.744,-1.36a0.4,0.4 0 0 1 0.157,-0.157"/>
  <path id="svg_48" fill="#D15D64" d="m1611.877,1349.727l1.3,-0.71a0.377,0.377 0 0 0 0,-0.66l-1.3,-0.712a0.38,0.38 0 0 1 -0.15,-0.15l-0.71,-1.3a0.377,0.377 0 0 0 -0.66,0l-0.71,1.3a0.386,0.386 0 0 1 -0.152,0.15l-1.3,0.71a0.377,0.377 0 0 0 0,0.662l1.3,0.71a0.39,0.39 0 0 1 0.15,0.15l0.71,1.3a0.376,0.376 0 0 0 0.662,0l0.71,-1.3a0.384,0.384 0 0 1 0.15,-0.15"/>
  <path id="svg_49" fill="#FCD05C" d="m1663.057,1249.9l1.36,-0.743a0.395,0.395 0 0 0 0,-0.692l-1.36,-0.743a0.4,0.4 0 0 1 -0.156,-0.157l-0.743,-1.36a0.394,0.394 0 0 0 -0.692,0l-0.743,1.36a0.395,0.395 0 0 1 -0.157,0.157l-1.36,0.743a0.395,0.395 0 0 0 0,0.692l1.36,0.744c0.066,0.037 0.12,0.09 0.157,0.157l0.743,1.36c0.15,0.273 0.542,0.273 0.692,0l0.744,-1.36a0.397,0.397 0 0 1 0.157,-0.156"/>
  <g id="svg_50" transform="matrix(1,0,0,-1,1587,986) ">
   <mask id="f">
    <use id="svg_51" xlink:href="#e"/>
   </mask>
   <path id="svg_52" mask="url(#f)" fill="#7B63AB" d="m4.667,1.79l1.36,0.743a0.394,0.394 0 0 1 0,0.692l-1.36,0.743a0.4,0.4 0 0 0 -0.157,0.156l-0.743,1.36a0.394,0.394 0 0 1 -0.692,0l-0.744,-1.36a0.397,0.397 0 0 0 -0.155,-0.156l-1.36,-0.743a0.395,0.395 0 0 1 0,-0.692l1.36,-0.744a0.39,0.39 0 0 0 0.156,-0.157l0.745,-1.36a0.394,0.394 0 0 1 0.692,0l0.743,1.36c0.036,0.066 0.09,0.12 0.157,0.156"/>
  </g>
  <g id="svg_53" stroke-linejoin="round" stroke-linecap="round" stroke-width="1.097" stroke="#7B63AB">
   <path id="svg_54" d="m1164,915l2.78,-2.78m-10.78,10.78l2.78,-2.78m2.827,-7.314c0,-0.997 -5.483,4.486 -4.486,4.486c-0.996,0 4.487,5.484 4.487,4.487c0,0.996 5.483,-4.488 4.486,-4.488c0.997,0 -4.486,-5.483 -4.486,-4.486l-0.001,0.001z"/>
  </g>
  <path id="svg_55" fill="#FCD05C" d="m1384.978,770.822l2.755,-1.507a0.394,0.394 0 0 0 0,-0.692l-2.755,-1.506a0.393,0.393 0 0 1 -0.157,-0.156l-1.505,-2.755a0.393,0.393 0 0 0 -0.692,0l-1.506,2.755a0.387,0.387 0 0 1 -0.158,0.157l-2.755,1.507a0.393,0.393 0 0 0 0,0.69l2.755,1.508a0.39,0.39 0 0 1 0.157,0.157l1.506,2.754c0.15,0.274 0.543,0.274 0.69,0l1.508,-2.755a0.395,0.395 0 0 1 0.16,-0.158"/>
  <path id="svg_56" fill="#D15D64" d="m1273.877,962.727l1.3,-0.71a0.377,0.377 0 0 0 0,-0.66l-1.3,-0.712a0.38,0.38 0 0 1 -0.15,-0.15l-0.71,-1.3a0.377,0.377 0 0 0 -0.66,0l-0.71,1.3a0.386,0.386 0 0 1 -0.152,0.15l-1.3,0.71a0.377,0.377 0 0 0 0,0.662l1.3,0.71a0.39,0.39 0 0 1 0.15,0.15l0.71,1.3a0.376,0.376 0 0 0 0.662,0l0.71,-1.3a0.384,0.384 0 0 1 0.15,-0.15"/>
  <path id="svg_57" fill="#FCD05C" d="m1494.057,873.9l1.36,-0.744a0.395,0.395 0 0 0 0,-0.692l-1.36,-0.743a0.4,0.4 0 0 1 -0.156,-0.156l-0.743,-1.36a0.394,0.394 0 0 0 -0.692,0l-0.743,1.36a0.395,0.395 0 0 1 -0.157,0.158l-1.36,0.742a0.395,0.395 0 0 0 0,0.692l1.36,0.745c0.066,0.037 0.12,0.09 0.157,0.156l0.743,1.36c0.15,0.273 0.542,0.273 0.692,0l0.744,-1.36a0.397,0.397 0 0 1 0.157,-0.156"/>
  <path id="svg_58" d="m1712,812l1.762,0.542l1.762,-0.542l-0.543,1.762l0.544,1.762l-1.762,-0.543l-1.762,0.544l0.542,-1.762l-0.543,-1.763z" stroke-linejoin="round" stroke-linecap="round" stroke-width="1.097" stroke="#00A959"/>
  <g id="svg_59" stroke-linejoin="round" stroke-linecap="round" stroke-width="1.097" stroke="#E98333">
   <path id="svg_60" d="m70.472,721l-1.472,-1.47m5.47,5.47l-1.47,-1.47m-2.457,-2.693a1.852,1.852 0 0 1 2.62,2.62a1.852,1.852 0 0 1 -2.62,-2.62z"/>
  </g>
  <g id="svg_61" opacity="0.5">
   <path id="svg_62" fill="#DBE7F0" d="m373.247,442.788c4.296,3.612 4.85,10.023 1.237,14.32a10.16,10.16 0 0 1 -10.065,3.36c-1.154,1.653 -1.81,3.362 -1.5,4.926c0.158,0.796 -0.377,0.72 -0.654,0.36c-1.387,-1.802 -2.994,-4.632 -2.882,-8.138c-3.57,-3.698 -3.838,-9.57 -0.457,-13.59c3.613,-4.297 10.024,-4.85 14.32,-1.238"/>
   <path id="svg_63" fill="#27363A" d="m370.31,449.378l-1.215,0l0.012,-0.59c0,-0.78 -0.703,-3.015 -1.803,-3.015c-0.35,0 -0.703,0.18 -0.937,0.46a1.02,1.02 0 0 0 -0.252,0.85c0.15,0.89 0.168,1.37 -0.38,1.97c-0.6,0.655 -0.89,0.93 -1.436,0.93l-1.203,0c-0.637,-0.004 -1.2,0.56 -1.2,1.198l0,2.404c0,0.638 0.563,1.202 1.2,1.202l1.034,0l0.867,0.517a0.62,0.62 0 0 0 0.312,0.084l3.803,0c0.68,0 1.707,-0.3 1.802,-1.13l0.59,-3.575c0.012,-0.048 0.012,-0.084 0.012,-0.12c-0.02,-0.704 -0.505,-1.184 -1.202,-1.184l-0.006,0l0.002,-0.001zm-0.002,4.809c-0.03,0.414 -0.765,0.6 -1.203,0.6l-3.804,0l-1.004,-0.6l0,-3.607c0.817,0 1.268,-0.45 1.88,-1.13c0.74,-0.817 0.686,-1.54 0.53,-2.482c-0.048,-0.3 0.3,-0.6 0.6,-0.6c0.5,0 1.202,1.64 1.202,2.403l-0.012,0.62c0,0.415 0.2,0.583 0.613,0.583l1.202,0c0.38,0 0.59,0.217 0.6,0.6l-0.6,3.607l-0.006,0.006l0.002,0z"/>
   <path id="svg_64" fill="#4D595D" d="m400.562,483.592c0,-4.514 -1.568,-8.66 -4.186,-11.93c-2.117,-2.222 -4.432,-0.835 -5.07,9.53c-0.766,12.432 -7.31,4.13 -12.526,9.985c-5.203,5.844 -17.318,-4.782 -14.19,1.43c3.22,6.01 9.56,10.1 16.857,10.1c10.556,0 19.115,-8.558 19.115,-19.115"/>
   <path id="svg_65" stroke-linejoin="round" stroke-linecap="round" stroke-width="1.097" stroke="#DBE7F0" d="m381.446,464.478c10.557,0 19.115,8.558 19.115,19.114c0,10.557 -8.557,19.115 -19.114,19.115s-19.114,-8.558 -19.114,-19.115c0,-10.556 8.557,-19.114 19.114,-19.114l-0.001,0z"/>
   <path id="svg_66" stroke-linejoin="round" stroke-linecap="round" stroke-width="1.097" stroke="#DBE7F0" d="m381.446,464.478c10.557,0 19.115,8.558 19.115,19.114c0,10.557 -8.557,19.115 -19.114,19.115s-19.114,-8.558 -19.114,-19.115c0,-10.556 8.557,-19.114 19.114,-19.114l-0.001,0z"/>
   <path id="svg_67" stroke-linejoin="round" stroke-linecap="round" stroke-width="1.097" stroke="#DBE7F0" d="m363.84,476.14c3.66,1.605 8.12,3.147 11.752,3.147c7.577,0 9.3,-4.65 18.253,-4.822c1.615,-0.03 3.07,-0.05 4.366,-0.06m-24.178,26.811c1.376,-3.52 4.187,-8.467 9.652,-11.252c6.53,-3.326 11.208,-0.57 16.055,-0.814"/>
   <path id="svg_68" stroke-linejoin="round" stroke-linecap="round" stroke-width="1.097" stroke="#DBE7F0" d="m365.356,493.916c2.948,-0.404 7.794,-1.682 11.786,-5.674c6.2,-6.2 7.92,-6.37 11.71,-6.37c3.103,0 7.71,3.234 11.64,3.363m-26.765,-19.135c3.98,0.616 8.786,1.863 11.853,4.404c2.395,1.985 6.528,1.848 10.644,0.963m-26.459,-3.005c1.467,0.318 2.818,0.663 3.696,0.947c2.897,0.936 5.453,1.277 4.715,3.333c-0.938,2.61 -5.274,1.137 -8.17,0.2c-0.95,-0.306 -2.138,-0.87 -3.3,-1.518m-4.248,9.971c3.822,0.546 9.144,1.832 9.69,4.78c0.376,2.04 -3.85,3.184 -8.714,3.828m13.074,12.06c3.32,-3.523 11.45,-10.65 21.097,-8.256l0.002,0"/>
  </g>
 </g>
</svg>