<?xml version="1.0" encoding="iso-8859-1"?>
<!-- Generator: Adobe Illustrator 19.0.0, SVG Export Plug-In . SVG Version: 6.00 Build 0)  -->
<svg version="1.1" id="Capa_1" xmlns="http://www.w3.org/2000/svg" xmlns:xlink="http://www.w3.org/1999/xlink" x="0px" y="0px"
	 viewBox="0 0 512 512" style="enable-background:new 0 0 512 512;" xml:space="preserve">
<g>
	<circle style="fill:#00DDC2;" cx="79.491" cy="475.305" r="28.52"/>
	<circle style="fill:#00DDC2;" cx="475.966" cy="117.84" r="28.52"/>
	<circle style="fill:#00DDC2;" cx="32.892" cy="56.456" r="19.688"/>
	<circle style="fill:#00DDC2;" cx="281.259" cy="27.811" r="19.688"/>
</g>
<circle style="fill:#E84661;" cx="458.9" cy="356.784" r="19.688"/>
<circle style="fill:#00DDC2;" cx="350.885" cy="446.792" r="19.688"/>
<circle style="fill:#E84661;" cx="467.173" cy="475.355" r="28.52"/>
<path style="fill:#CE1D4C;" d="M495.695,475.354c0,15.754-12.769,28.524-28.524,28.524c-12.499,0-23.125-8.042-26.961-19.249
	c4.647,3.295,10.326,5.228,16.445,5.228c15.754,0,28.524-12.769,28.524-28.524c0-3.245-0.541-6.36-1.542-9.264
	C490.938,457.236,495.695,465.739,495.695,475.354z"/>
<g>
	<path style="fill:#00BCA1;" d="M504.488,117.834c0,15.754-12.769,28.524-28.523,28.524c-12.499,0-23.125-8.042-26.961-19.249
		c4.647,3.295,10.326,5.228,16.445,5.228c15.754,0,28.524-12.769,28.524-28.524c0-3.245-0.541-6.36-1.542-9.264
		C499.73,99.716,504.488,108.219,504.488,117.834z"/>
	<path style="fill:#00BCA1;" d="M108.016,475.306c0,15.754-12.769,28.523-28.524,28.523c-12.499,0-23.125-8.042-26.961-19.249
		c4.647,3.295,10.326,5.228,16.445,5.228c15.754,0,28.524-12.77,28.524-28.524c0-3.245-0.541-6.36-1.542-9.264
		C103.259,457.188,108.016,465.691,108.016,475.306z"/>
</g>
<circle style="fill:#E84661;" cx="325.106" cy="117.84" r="19.688"/>
<g>
	<path style="fill:#CE1D4C;" d="M344.795,117.846c0,10.867-8.813,19.68-19.69,19.68c-9.394,0-17.246-6.58-19.209-15.373
		c3.105,2.043,6.81,3.235,10.806,3.235c10.867,0,19.69-8.813,19.69-19.69c0-1.482-0.16-2.924-0.481-4.307
		C341.26,104.906,344.795,110.965,344.795,117.846z"/>
	<path style="fill:#CE1D4C;" d="M478.592,356.792c0,10.867-8.813,19.68-19.69,19.68c-9.394,0-17.246-6.58-19.209-15.373
		c3.105,2.043,6.81,3.235,10.806,3.235c10.867,0,19.69-8.813,19.69-19.69c0-1.482-0.16-2.924-0.481-4.307
		C475.057,343.853,478.592,349.912,478.592,356.792z"/>
</g>
<g>
	<path style="fill:#00BCA1;" d="M370.575,446.799c0,10.867-8.813,19.68-19.69,19.68c-9.394,0-17.246-6.58-19.209-15.373
		c3.105,2.043,6.81,3.235,10.806,3.235c10.867,0,19.69-8.813,19.69-19.69c0-1.482-0.16-2.924-0.481-4.307
		C367.04,433.859,370.575,439.918,370.575,446.799z"/>
	<path style="fill:#00BCA1;" d="M300.949,27.818c0,10.867-8.813,19.68-19.69,19.68c-9.394,0-17.246-6.58-19.209-15.373
		c3.105,2.043,6.81,3.235,10.806,3.235c10.867,0,19.69-8.813,19.69-19.69c0-1.482-0.16-2.924-0.481-4.307
		C297.414,14.88,300.949,20.938,300.949,27.818z"/>
	<path style="fill:#00BCA1;" d="M52.58,56.461c0,10.867-8.813,19.68-19.69,19.68c-9.394,0-17.246-6.58-19.209-15.373
		c3.105,2.043,6.81,3.235,10.806,3.235c10.867,0,19.69-8.813,19.69-19.69c0-1.482-0.16-2.924-0.481-4.307
		C49.045,43.521,52.58,49.581,52.58,56.461z"/>
</g>
<circle style="fill:#E84661;" cx="27.201" cy="289.061" r="19.688"/>
<path style="fill:#CE1D4C;" d="M46.891,289.06c0,10.867-8.813,19.68-19.69,19.68c-9.394,0-17.246-6.58-19.209-15.373
	c3.105,2.043,6.81,3.235,10.806,3.235c10.867,0,19.69-8.813,19.69-19.69c0-1.482-0.16-2.924-0.481-4.307
	C43.355,276.12,46.891,282.179,46.891,289.06z"/>
<path style="fill:#FFE269;" d="M114.952,64.023l44.096,49.393c1.098,1.23,2.73,1.84,4.365,1.632l65.687-8.324
	c4.117-0.522,7.046,3.905,4.956,7.49l-33.349,57.201c-0.83,1.424-0.906,3.165-0.204,4.656l28.215,59.9
	c1.769,3.755-1.536,7.908-5.593,7.028l-64.707-14.041c-1.61-0.35-3.29,0.116-4.491,1.245l-48.25,45.344
	c-3.025,2.842-7.995,0.982-8.412-3.147l-6.642-65.878c-0.165-1.639-1.127-3.094-2.572-3.887l-58.035-31.877
	c-3.638-1.998-3.405-7.3,0.394-8.973l60.602-26.675c1.508-0.664,2.594-2.028,2.901-3.647l12.383-65.044
	C107.073,62.344,112.188,60.927,114.952,64.023z"/>
<path style="fill:#F7D443;" d="M200.705,171.42c-0.831,1.422-0.901,3.165-0.2,4.647l28.213,59.901
	c1.763,3.756-1.532,7.912-5.589,7.031l-23.025-4.998l-22.675-48.133c-0.701-1.492-0.621-3.235,0.21-4.657l33.351-57.197
	c2.083-3.585-0.841-8.012-4.958-7.491l-65.69,8.323c-1.632,0.21-3.265-0.401-4.367-1.632l-34.002-38.088l4.327-22.705
	c0.771-4.076,5.889-5.498,8.653-2.394l44.097,49.385c1.092,1.232,2.724,1.843,4.357,1.632l65.69-8.323
	c4.116-0.521,7.051,3.906,4.958,7.491L200.705,171.42z"/>
<path style="fill:#FFE269;" d="M166.99,320.861l36.795,22.841c1.4,0.869,3.139,0.994,4.649,0.334l39.676-17.362
	c3.803-1.664,7.862,1.755,6.87,5.785l-10.353,42.053c-0.394,1.6,0.025,3.292,1.12,4.524l28.773,32.368
	c2.757,3.102,0.761,8.019-3.378,8.322l-43.194,3.149c-1.644,0.12-3.124,1.041-3.957,2.463l-21.893,37.367
	c-2.098,3.581-7.392,3.202-8.958-0.642l-16.343-40.106c-0.622-1.526-1.955-2.649-3.565-3.002l-42.304-9.274
	c-4.054-0.888-5.329-6.04-2.158-8.718l33.093-27.937c1.26-1.064,1.915-2.678,1.754-4.319l-4.252-43.099
	C158.957,321.477,163.463,318.673,166.99,320.861z"/>
<path style="fill:#F7D443;" d="M271.143,419.729l-24.587,1.793l-19.78-22.244c-1.102-1.232-1.512-2.924-1.122-4.527l10.356-42.054
	c0.992-4.026-3.075-7.451-6.87-5.789l-39.681,17.366c-1.512,0.661-3.245,0.541-4.647-0.331l-23.075-14.332l-2.374-24.007
	c-0.401-4.126,4.096-6.931,7.632-4.747l36.796,22.845c1.392,0.871,3.135,0.992,4.647,0.331l39.671-17.356
	c3.806-1.673,7.862,1.753,6.87,5.779l-10.356,42.054c-0.391,1.602,0.03,3.295,1.122,4.527l28.774,32.369
	C277.282,414.501,275.279,419.419,271.143,419.729z"/>
<path style="fill:#FFE269;" d="M407.06,146.535l6.923,56.336c0.201,1.635,1.194,3.068,2.656,3.83l50.333,26.235
	c3.681,1.918,3.563,7.224-0.198,8.979l-51.439,23.992c-1.493,0.697-2.549,2.084-2.821,3.71l-9.397,55.976
	c-0.687,4.093-5.77,5.622-8.6,2.587l-38.714-41.507c-1.124-1.205-2.769-1.78-4.4-1.537l-56.141,8.361
	c-4.105,0.611-7.13-3.75-5.118-7.38l27.513-49.646c0.799-1.441,0.837-3.184,0.103-4.659L292.459,181
	c-1.85-3.716,1.363-7.939,5.437-7.148l55.718,10.825c1.617,0.314,3.287-0.187,4.463-1.342l40.504-39.762
	C401.544,140.664,406.554,142.414,407.06,146.535z"/>
<path style="fill:#F7D443;" d="M466.771,241.908l-51.438,23.997c-1.492,0.701-2.544,2.083-2.824,3.706l-9.394,55.975
	c-0.691,4.096-5.769,5.629-8.603,2.594l-17.847-19.139l7.391-44.027c0.27-1.633,1.322-3.015,2.824-3.716l51.438-23.987
	c3.756-1.763,3.876-7.061,0.19-8.984l-50.327-26.23c-1.462-0.761-2.454-2.193-2.654-3.836l-4.597-37.367l17.647-17.326
	c2.965-2.904,7.972-1.152,8.483,2.965l6.921,56.336c0.2,1.632,1.192,3.065,2.654,3.826l50.337,26.24
	C470.647,234.857,470.537,240.155,466.771,241.908z"/>
<path d="M79.496,511.341c-19.868,0-36.032-16.164-36.032-36.031s16.164-36.031,36.032-36.031c19.867,0,36.031,16.164,36.031,36.031
	S99.364,511.341,79.496,511.341z M79.496,454.302c-11.584,0-21.009,9.424-21.009,21.008s9.424,21.008,21.009,21.008
	s21.008-9.424,21.008-21.008S91.08,454.302,79.496,454.302z"/>
<path d="M475.968,153.869c-19.867,0-36.031-16.164-36.031-36.031s16.164-36.031,36.031-36.031c19.868,0,36.032,16.164,36.032,36.031
	S495.836,153.869,475.968,153.869z M475.968,96.83c-11.584,0-21.008,9.424-21.008,21.008s9.423,21.008,21.008,21.008
	s21.009-9.424,21.009-21.008C496.977,106.254,487.553,96.83,475.968,96.83z"/>
<path d="M467.176,511.388c-19.868,0-36.032-16.164-36.032-36.031s16.164-36.031,36.032-36.031c19.867,0,36.031,16.164,36.031,36.031
	S487.043,511.388,467.176,511.388z M467.176,454.349c-11.584,0-21.009,9.424-21.009,21.008s9.424,21.008,21.009,21.008
	s21.008-9.424,21.008-21.008S478.759,454.349,467.176,454.349z"/>
<path d="M102.277,284.429c-1.477,0-2.971-0.263-4.415-0.804c-4.496-1.682-7.589-5.694-8.07-10.47l-6.51-64.57l-56.881-31.243
	c-4.207-2.312-6.691-6.726-6.481-11.522c0.21-4.795,3.07-8.976,7.463-10.909l59.398-26.144l12.137-63.751
	c0.897-4.716,4.329-8.442,8.954-9.723c4.625-1.281,9.485,0.146,12.682,3.726l43.22,48.412l2.616-0.332
	c4.109-0.522,7.875,2.392,8.396,6.508c0.522,4.115-2.393,7.874-6.508,8.396l-3.922,0.497c-4.09,0.52-8.168-1.008-10.913-4.083
	l-40.716-45.609l-11.433,60.062c-0.771,4.048-3.482,7.455-7.254,9.117L38.08,166.618l53.588,29.434
	c3.613,1.985,6.016,5.618,6.429,9.718l6.133,60.83l44.553-41.869c3.003-2.821,7.199-3.985,11.226-3.112l59.75,12.965l-26.052-55.31
	c-1.756-3.727-1.565-8.077,0.509-11.637l30.796-52.822l-9.839,1.247c-4.106,0.523-7.873-2.392-8.396-6.508
	c-0.522-4.115,2.393-7.875,6.508-8.396l14.872-1.884c4.764-0.605,9.366,1.509,12.013,5.511c2.65,4.003,2.793,9.066,0.376,13.213
	l-32.687,56.065l27.653,58.711c2.046,4.341,1.46,9.372-1.528,13.129c-2.989,3.757-7.757,5.457-12.452,4.44l-63.42-13.762
	l-47.292,44.443C108.447,283.253,105.397,284.429,102.277,284.429z"/>
<path d="M197.8,472.693c-0.304,0-0.609-0.011-0.917-0.033c-4.787-0.344-8.887-3.318-10.699-7.762l-15.845-38.888l-41.019-8.993
	c-4.689-1.029-8.319-4.562-9.471-9.222c-1.153-4.66,0.41-9.477,4.078-12.573l32.087-27.087l-4.123-41.789
	c-0.471-4.778,1.769-9.321,5.844-11.858c4.073-2.537,9.138-2.54,13.217-0.008l35.677,22.147l38.47-16.835
	c4.398-1.924,9.41-1.2,13.083,1.893c3.672,3.092,5.239,7.908,4.091,12.569l-10.037,40.773l27.899,31.385
	c3.19,3.588,4.048,8.58,2.242,13.027s-5.902,7.427-10.689,7.777l-24.675,1.799c-4.11,0.311-7.736-2.807-8.037-6.946
	c-0.301-4.137,2.808-7.737,6.947-8.037l19.614-1.43l-25.403-28.578c-2.738-3.078-3.785-7.307-2.799-11.31l9.14-37.126
	l-35.028,15.328c-3.775,1.652-8.118,1.341-11.622-0.833l-32.486-20.166l3.755,38.051c0.404,4.103-1.235,8.138-4.385,10.795
	l-29.216,24.664l37.348,8.187c4.026,0.883,7.357,3.689,8.912,7.504l14.428,35.409l7.499-12.802c2.098-3.58,6.699-4.781,10.279-2.684
	s4.781,6.698,2.685,10.278l-10.064,17.178C206.308,470.378,202.236,472.693,197.8,472.693z"/>
<path d="M398.14,337.29c-3.408,0-6.703-1.398-9.119-3.989l-37.816-40.544l-54.839,8.166c-4.742,0.706-9.395-1.304-12.13-5.248
	c-2.735-3.945-2.989-9.004-0.663-13.202l26.874-48.494l-24.713-49.631c-2.139-4.298-1.663-9.34,1.244-13.16
	c2.905-3.82,7.634-5.624,12.351-4.709l54.425,10.573l39.565-38.841c3.425-3.362,8.368-4.468,12.899-2.884
	c4.532,1.583,7.711,5.526,8.298,10.291v0.001l6.762,55.029l49.165,25.626c4.256,2.218,6.834,6.578,6.729,11.377
	c-0.105,4.799-2.873,9.041-7.224,11.07l-50.247,23.436l-9.179,54.678c-0.794,4.733-4.143,8.534-8.741,9.916
	C400.577,337.112,399.351,337.29,398.14,337.29z M352.14,277.566c3.445,0,6.769,1.422,9.156,3.982l35.252,37.796l8.557-50.973
	c0.682-4.064,3.318-7.531,7.054-9.272l46.842-21.848l-45.834-23.889c-3.656-1.907-6.137-5.486-6.639-9.577l-6.304-51.298
	l-36.884,36.208c-2.942,2.887-7.118,4.14-11.158,3.356l-50.737-9.857l23.038,46.268c1.838,3.687,1.742,8.042-0.257,11.649
	l-25.052,45.208l51.122-7.613C350.91,277.611,351.527,277.566,352.14,277.566z M421.439,201.954h0.01H421.439z M399.605,147.451
	c0.001,0.003,0.001,0.006,0.002,0.009L399.605,147.451L399.605,147.451z"/>
<path d="M32.893,83.653c-14.998,0-27.199-12.202-27.199-27.199s12.202-27.198,27.199-27.198s27.198,12.202,27.198,27.198
	S47.89,83.653,32.893,83.653z M32.893,44.278c-6.714,0-12.177,5.462-12.177,12.177s5.462,12.177,12.177,12.177
	c6.713-0.001,12.176-5.463,12.176-12.178S39.606,44.278,32.893,44.278z"/>
<path d="M458.905,383.984c-14.998,0-27.199-12.202-27.199-27.199c0-14.998,12.203-27.199,27.199-27.199s27.198,12.202,27.198,27.199
	C486.104,371.782,473.903,383.984,458.905,383.984z M458.905,344.608c-6.714,0-12.177,5.462-12.177,12.177
	c0,6.714,5.462,12.177,12.177,12.177c6.713,0,12.176-5.462,12.176-12.177C471.081,350.07,465.618,344.608,458.905,344.608z"/>
<path d="M325.107,145.037c-14.998,0-27.199-12.202-27.199-27.2s12.202-27.199,27.199-27.199c14.997,0,27.199,12.202,27.199,27.2
	S340.105,145.037,325.107,145.037z M325.107,105.661c-6.713,0-12.176,5.462-12.176,12.177c0,6.714,5.462,12.177,12.176,12.177
	c6.714,0,12.177-5.462,12.177-12.177C337.283,111.124,331.821,105.661,325.107,105.661z"/>
<path d="M281.261,55.011c-14.998,0-27.199-12.202-27.199-27.199s12.203-27.199,27.199-27.199c14.997,0,27.199,12.202,27.199,27.199
	S296.259,55.011,281.261,55.011z M281.261,15.635c-6.714,0-12.177,5.462-12.177,12.177s5.462,12.177,12.177,12.177
	c6.714,0,12.177-5.462,12.177-12.177S287.975,15.635,281.261,15.635z"/>
<path d="M27.199,316.255C12.203,316.255,0,304.054,0,289.056c0-14.998,12.203-27.199,27.199-27.199s27.198,12.202,27.198,27.199
	C54.398,304.054,42.197,316.255,27.199,316.255z M27.199,276.88c-6.714,0-12.177,5.462-12.177,12.177
	c0,6.714,5.462,12.177,12.177,12.177c6.713,0,12.176-5.462,12.176-12.177C39.375,282.343,33.913,276.88,27.199,276.88z"/>
<path d="M350.888,473.99c-14.998,0-27.199-12.202-27.199-27.199s12.203-27.199,27.199-27.199c14.997,0,27.198,12.202,27.198,27.199
	C378.087,461.788,365.885,473.99,350.888,473.99z M350.888,434.614c-6.714,0-12.177,5.462-12.177,12.177
	c0,6.714,5.462,12.177,12.177,12.177c6.713,0,12.176-5.462,12.176-12.177C363.064,440.076,357.602,434.614,350.888,434.614z"/>
<g>
</g>
<g>
</g>
<g>
</g>
<g>
</g>
<g>
</g>
<g>
</g>
<g>
</g>
<g>
</g>
<g>
</g>
<g>
</g>
<g>
</g>
<g>
</g>
<g>
</g>
<g>
</g>
<g>
</g>
</svg>
