<?xml version="1.0" standalone="no"?>
<!DOCTYPE svg PUBLIC "-//W3C//DTD SVG 20010904//EN"
 "http://www.w3.org/TR/2001/REC-SVG-20010904/DTD/svg10.dtd">
<svg version="1.0" xmlns="http://www.w3.org/2000/svg"
 width="700.000000pt" height="700.000000pt" viewBox="0 0 700.000000 700.000000"
 preserveAspectRatio="xMidYMid meet">
<metadata>
Created by potrace 1.11, written by Peter Selinger 2001-2013
</metadata>
<g transform="translate(0.000000,700.000000) scale(0.100000,-0.100000)"
fill="#000000" stroke="none">
<path d="M328 6981 c-151 -48 -262 -161 -308 -310 -20 -62 -20 -110 -20 -3170
0 -2814 2 -3113 16 -3162 45 -154 169 -278 323 -323 49 -14 348 -16 3161 -16
2813 0 3112 2 3161 16 154 45 278 169 323 323 14 49 16 348 16 3161 0 2813 -2
3112 -16 3161 -45 154 -169 278 -323 323 -50 14 -348 16 -3165 15 -2982 0
-3113 -1 -3168 -18z m2139 -1814 c56 -37 85 -92 90 -167 4 -54 0 -73 -19 -110
-81 -157 -302 -157 -385 0 -38 71 -25 176 29 240 66 78 200 95 285 37z m2393
-517 c5 -8 10 -96 10 -194 0 -153 -2 -182 -17 -198 -14 -16 -33 -18 -155 -18
-76 0 -138 -3 -138 -6 0 -3 11 -25 25 -49 37 -62 81 -190 99 -285 43 -222 -5
-466 -129 -665 -258 -414 -799 -557 -1235 -329 -444 233 -623 786 -400 1239
119 243 339 427 595 496 112 30 240 35 828 29 437 -4 509 -7 517 -20z m-2318
-17 c17 -15 18 -57 18 -924 l0 -908 -22 -15 c-18 -13 -55 -16 -193 -16 -138 0
-175 3 -193 16 l-22 15 0 906 c0 829 1 908 17 925 14 16 34 18 196 18 154 0
183 -2 199 -17z m1432 -1963 c358 -91 626 -394 662 -747 11 -102 10 -103 -212
-103 -203 0 -205 1 -224 68 -5 20 -10 43 -10 49 0 7 -12 38 -27 69 -87 185
-314 292 -508 240 -167 -44 -306 -190 -331 -346 -13 -78 -18 -80 -227 -80
-172 0 -185 1 -202 20 -18 19 -18 27 -6 108 55 380 367 688 752 742 88 12 244
3 333 -20z"/>
<path d="M3675 4230 c-245 -53 -415 -256 -415 -496 0 -133 53 -257 152 -356
65 -65 143 -108 239 -132 80 -20 135 -20 217 -1 232 55 392 254 392 487 0 270
-205 487 -475 503 -38 2 -88 0 -110 -5z"/>
</g>
</svg>
