<?xml version="1.0" encoding="iso-8859-1"?>
<!-- Generator: Adobe Illustrator 19.0.0, SVG Export Plug-In . SVG Version: 6.00 Build 0)  -->
<svg version="1.1" id="Layer_1" xmlns="http://www.w3.org/2000/svg" xmlns:xlink="http://www.w3.org/1999/xlink" x="0px" y="0px"
	 viewBox="0 0 352.457 352.457" style="enable-background:new 0 0 352.457 352.457;" xml:space="preserve">
<g>
	<g>
		<path d="M313.022,72.418L241.895,1.29c-0.431-0.774-1.29-1.29-2.323-1.29h-0.086H52.335c-7.568,0-13.847,6.193-13.847,13.847
			V338.61c0,7.569,6.193,13.847,13.847,13.847h247.786c7.311,0,13.503-6.192,13.847-13.847V74.482
			C313.797,73.536,313.539,72.934,313.022,72.418z M308.292,338.524h-0.085c0,4.472-3.698,8.171-8.171,8.171H52.249
			c-4.472,0-8.171-3.698-8.171-8.171V13.761c0-4.472,3.698-8.171,8.171-8.171h120.926v24.77h-11.009
			c-1.72,0-2.838,1.118-2.838,2.838v32.941c0,8.085,6.107,14.793,13.847,16.083v19.438h-8.171c-1.72,0-2.838,1.118-2.838,2.838
			s1.118,2.838,2.838,2.838h8.171v5.333h-8.171c-1.72,0-2.838,1.118-2.838,2.838s1.118,2.838,2.838,2.838h8.171v5.333h-8.171
			c-1.72,0-2.838,1.118-2.838,2.838c0,1.72,1.118,2.838,2.838,2.838h8.171v5.333h-8.171c-1.72,0-2.838,1.118-2.838,2.838
			c0,1.72,1.118,2.838,2.838,2.838h8.171v5.333h-8.171c-1.72,0-2.838,1.118-2.838,2.838s1.118,2.838,2.838,2.838h8.171v5.333h-8.171
			c-1.72,0-2.838,1.118-2.838,2.838s1.118,2.838,2.838,2.838h8.171v5.333h-8.171c-1.72,0-2.838,1.118-2.838,2.838
			c0,1.72,1.118,2.838,2.838,2.838h8.171v5.677h-8.171c-1.72,0-2.838,1.118-2.838,2.838c0,1.72,1.118,2.838,2.838,2.838h8.171v5.333
			h-8.171c-1.72,0-2.838,1.118-2.838,2.838c0,1.72,1.118,2.838,2.838,2.838h8.171v5.333h-8.171c-1.72,0-2.838,1.118-2.838,2.838
			c0,1.72,1.118,2.838,2.838,2.838h8.171v5.333h-8.171c-1.72,0-2.838,1.118-2.838,2.838c0,1.72,1.118,2.838,2.838,2.838h8.171v5.333
			h-8.171c-1.72,0-2.838,1.118-2.838,2.838c0,1.72,1.118,2.838,2.838,2.838h8.171v5.333h-8.171c-1.72,0-2.838,1.118-2.838,2.838
			c0,1.72,1.118,2.838,2.838,2.838h8.171v5.333h-8.171c-1.72,0-2.838,1.118-2.838,2.838c0,1.72,1.118,2.838,2.838,2.838h8.171v5.333
			h-8.171c-1.72,0-2.838,1.118-2.838,2.838c0,1.72,1.118,2.838,2.838,2.838h8.171v5.333h-8.171c-1.72,0-2.838,1.118-2.838,2.838
			c0,1.72,1.118,2.838,2.838,2.838h8.171v5.333h-8.171c-1.72,0-2.838,1.118-2.838,2.838c0,1.72,1.118,2.838,2.838,2.838h8.171v5.333
			h-8.171c-1.72,0-2.838,1.118-2.838,2.838c0,1.72,1.118,2.838,2.838,2.838h8.171v5.333h-8.171c-1.72,0-2.838,1.118-2.838,2.838
			c0,1.72,1.118,2.838,2.838,2.838h8.171v5.333h-8.171c-1.72,0-2.838,1.118-2.838,2.838c0,1.72,1.118,2.838,2.838,2.838h8.171v8.171
			c0,1.72,1.118,2.838,2.838,2.838c1.72,0,2.838-1.118,2.838-2.838v-13.503h8.171c1.72,0,2.838-1.118,2.838-2.838
			c0-1.72-1.118-2.838-2.838-2.838h-8.171v-5.333h8.171c1.72,0,2.838-1.118,2.838-2.838c0-1.72-1.118-2.838-2.838-2.838h-8.171
			v-5.677h8.171c1.72,0,2.838-1.118,2.838-2.838c0-1.72-1.118-2.838-2.838-2.838h-8.171v-5.333h8.171
			c1.72,0,2.838-1.118,2.838-2.838c0-1.72-1.118-2.838-2.838-2.838h-8.171v-5.333h8.171c1.72,0,2.838-1.118,2.838-2.838
			c0-1.72-1.118-2.838-2.838-2.838h-8.171v-5.333h8.171c1.72,0,2.838-1.118,2.838-2.838c0-1.72-1.118-2.838-2.838-2.838h-8.171
			v-5.333h8.171c1.72,0,2.838-1.118,2.838-2.838c0-1.72-1.118-2.838-2.838-2.838h-8.171v-5.333h8.171
			c1.72,0,2.838-1.118,2.838-2.838c0-1.72-1.118-2.838-2.838-2.838h-8.171v-5.333h8.171c1.72,0,2.838-1.118,2.838-2.838
			c0-1.72-1.118-2.838-2.838-2.838h-8.171v-5.333h8.171c1.72,0,2.838-1.118,2.838-2.838c0-1.72-1.118-2.838-2.838-2.838h-8.171
			v-5.333h8.171c1.72,0,2.838-1.118,2.838-2.838c0-1.72-1.118-2.838-2.838-2.838h-8.171v-5.333h8.171
			c1.72,0,2.838-1.118,2.838-2.838c0-1.72-1.118-2.838-2.838-2.838h-8.171v-5.333h8.171c1.72,0,2.838-1.118,2.838-2.838
			s-1.118-2.838-2.838-2.838h-8.171v-5.333h8.171c1.72,0,2.838-1.118,2.838-2.838c0-1.72-1.118-2.838-2.838-2.838h-8.171v-5.333
			h8.171c1.72,0,2.838-1.118,2.838-2.838s-1.118-2.838-2.838-2.838h-8.171v-5.333h8.171c1.72,0,2.838-1.118,2.838-2.838
			s-1.118-2.838-2.838-2.838h-8.171v-5.333h8.171c1.72,0,2.838-1.118,2.838-2.838s-1.118-2.838-2.838-2.838h-8.171v-5.333h8.171
			c1.72,0,2.838-1.118,2.838-2.838s-1.118-2.838-2.838-2.838h-8.171v-5.333h8.171c1.72,0,2.838-1.118,2.838-2.838
			c0-1.72-1.118-2.838-2.838-2.838h-8.171v-5.333h8.171c1.72,0,2.838-1.118,2.838-2.838s-1.118-2.838-2.838-2.838h-8.171V82.223
			c7.741-1.376,13.847-7.999,13.847-16.083v-32.94c0-1.72-1.118-2.838-2.838-2.838h-11.009V5.591h57.797v51.002
			c0,11.525,9.289,20.556,21.157,20.556h25.63c1.376,0,2.838-1.118,2.838-2.838s-1.118-2.838-2.838-2.838h-25.63
			c-8.773,0-15.482-6.45-15.482-14.965V9.461l65.967,65.967V338.524z M187.023,35.951V66.14c0,6.021-4.817,10.751-11.009,10.751
			c-6.193,0-11.009-4.816-11.009-10.751V35.693L187.023,35.951z"/>
	</g>
</g>
<g>
</g>
<g>
</g>
<g>
</g>
<g>
</g>
<g>
</g>
<g>
</g>
<g>
</g>
<g>
</g>
<g>
</g>
<g>
</g>
<g>
</g>
<g>
</g>
<g>
</g>
<g>
</g>
<g>
</g>
</svg>
