<?xml version="1.0" encoding="iso-8859-1"?>
<!-- Generator: Adobe Illustrator 19.0.0, SVG Export Plug-In . SVG Version: 6.00 Build 0)  -->
<svg version="1.1" id="Layer_1" xmlns="http://www.w3.org/2000/svg" xmlns:xlink="http://www.w3.org/1999/xlink" x="0px" y="0px"
	 viewBox="0 0 500.001 500.001" style="enable-background:new 0 0 500.001 500.001;" xml:space="preserve">
<g>
	<g>
		<path d="M252.007,254.641L33.003,127.589c-1.236-0.716-2.76-0.72-4.004-0.004c-1.24,0.712-2.004,2.036-2.004,3.464v237.9
			c0,1.424,0.756,2.744,1.992,3.46l219.004,127.052c0.62,0.36,1.312,0.54,2.008,0.54c0.688,0,1.38-0.18,1.996-0.536
			c1.24-0.712,2.004-2.036,2.004-3.464v-237.9C253.999,256.677,253.243,255.357,252.007,254.641z M245.999,489.057L34.995,366.641
			V137.993l211.004,122.416V489.057z"/>
	</g>
</g>
<g>
	<g>
		<path d="M470.999,127.581c-1.244-0.716-2.772-0.712-4.008,0.012L248.383,254.649c-1.908,1.108-2.556,3.556-1.444,5.468
			c1.108,1.904,3.552,2.548,5.468,1.444l212.596-123.56v228.644l-216.696,125.9c-1.908,1.108-2.56,3.552-1.448,5.464
			c0.74,1.28,2.08,1.992,3.46,1.992c0.684,0,1.376-0.176,2.004-0.54l218.688-127.056c1.236-0.712,1.992-2.032,1.992-3.456v-237.9
			C473.003,129.621,472.239,128.297,470.999,127.581z"/>
	</g>
</g>
<g>
	<g>
		<path d="M471.015,127.593L252.571,0.545c-1.24-0.724-2.768-0.728-4.016-0.004L28.991,127.589
			c-1.908,1.104-2.564,3.548-1.456,5.464c0.74,1.28,2.08,1.996,3.464,1.996c0.68,0,1.368-0.172,2-0.54L250.555,8.625l216.436,125.88
			c1.908,1.108,4.36,0.468,5.468-1.444C473.575,131.153,472.927,128.701,471.015,127.593z"/>
	</g>
</g>
<g>
	<g>
		<path d="M339.307,178.037L143.419,64.285c-1.908-1.108-4.36-0.464-5.468,1.452c-1.112,1.908-0.46,4.36,1.452,5.468
			l195.884,113.752c0.632,0.368,1.32,0.54,2.004,0.54c1.38,0,2.724-0.716,3.468-1.992
			C341.871,181.597,341.219,179.145,339.307,178.037z"/>
	</g>
</g>
<g>
</g>
<g>
</g>
<g>
</g>
<g>
</g>
<g>
</g>
<g>
</g>
<g>
</g>
<g>
</g>
<g>
</g>
<g>
</g>
<g>
</g>
<g>
</g>
<g>
</g>
<g>
</g>
<g>
</g>
</svg>
