<svg xmlns="http://www.w3.org/2000/svg" viewBox="0 0 512 512">
  <linearGradient id="a" gradientUnits="userSpaceOnUse" x1="108.1839" y1="193.8161" x2="456.0841" y2="-154.0841" gradientTransform="matrix(1 0 0 -1 0 302)">
    <stop offset="0" stop-color="#3f47aa"/>
    <stop offset="1" stop-color="#2cacbc"/>
  </linearGradient>
  <path d="M477.867 512H34.133C15.281 512 0 496.718 0 477.867V34.133C0 15.281 15.281 0 34.133 0h443.733C496.718 0 512 15.281 512 34.133v443.733C512 496.718 496.718 512 477.867 512z" fill="url(#a)"/>
  <g fill="#fff">
    <path d="M171.547 130.946c-8.97 0-16.241 7.272-16.241 16.241s7.272 16.241 16.241 16.241 16.241-7.272 16.241-16.241-7.27-16.241-16.241-16.241zM182.915 309.594h-22.736c-2.691 0-4.873-2.181-4.873-4.873V176.42c0-2.691 2.181-4.873 4.873-4.873h22.738c2.691 0 4.873 2.181 4.873 4.873v128.302c-.002 2.691-2.183 4.872-4.875 4.872zM275.488 197.451v-22.738c0-2.691 2.181-4.873 4.873-4.873h71.46c2.691 0 4.873 2.181 4.873 4.873v22.738c0 2.691-2.181 4.873-4.873 4.873h-71.46c-2.69-.002-4.873-2.183-4.873-4.873z"/>
    <path d="M275.082 202.322c20.149 0 36.541 16.393 36.541 36.541s-16.393 36.541-36.541 36.541-36.541-16.393-36.541-36.541 16.392-36.541 36.541-36.541m0-32.481c-38.12 0-69.024 30.903-69.024 69.024s30.903 69.024 69.024 69.024 69.024-30.903 69.024-69.024-30.902-69.024-69.024-69.024zM275.082 346.866c16.497 0 30.162 12.363 32.215 28.31.309 2.4 2.393 4.173 4.813 4.173h22.868c2.807 0 5.086-2.371 4.866-5.169-2.633-33.463-30.623-59.795-64.761-59.795s-62.126 26.332-64.761 59.795c-.22 2.799 2.058 5.169 4.866 5.169h22.868c2.42 0 4.504-1.773 4.813-4.173 2.053-15.948 15.717-28.31 32.213-28.31z"/>
  </g>
</svg>
