<svg height="480pt" viewBox="0 -72 480.00007 480" width="480pt" xmlns="http://www.w3.org/2000/svg"><path d="m440 8h-400c-17.671875 0-32 14.328125-32 32v253.839844l168-109.839844 68.960938 53.601562 107.039062-85.601562 120 72v-184c0-17.671875-14.328125-32-32-32zm-200 128c-22.089844 0-40-17.910156-40-40s17.910156-40 40-40 40 17.910156 40 40-17.910156 40-40 40zm0 0" fill="#8ebef8"/><path d="m176 184-168 109.839844v2.160156c0 17.671875 14.328125 32 32 32h321.121094l-116.160156-90.398438zm0 0" fill="#4b925e"/><path d="m244.960938 237.601562 116.160156 90.398438h78.878906c1.796875.003906 3.589844-.15625 5.359375-.480469 15.375-2.613281 26.628906-15.925781 26.640625-31.519531v-72l-120-72zm0 0" fill="#317743"/><path d="m280 96c0 22.089844-17.910156 40-40 40s-40-17.910156-40-40 17.910156-40 40-40 40 17.910156 40 40zm0 0" fill="#ffda44"/><g fill="#202020"><path d="m440 0h-400c-22.082031.0273438-39.9726562 17.917969-40 40v256c.0273438 22.082031 17.917969 39.972656 40 40h400c2.246094.007812 4.484375-.1875 6.695312-.582031 19.25-3.222657 33.339844-19.902344 33.304688-39.417969v-256c-.027344-22.082031-17.917969-39.9726562-40-40zm-424 40c0-13.253906 10.746094-24 24-24h400c13.253906 0 24 10.746094 24 24v169.871094l-107.878906-64.726563c-2.867188-1.726562-6.507813-1.484375-9.121094.609375l-102.136719 81.679688-63.960937-49.746094c-2.691406-2.09375-6.417969-2.25-9.277344-.382812l-155.625 101.75zm.097656 258.113281 159.503906-104.289062 162.207032 126.175781h-297.808594c-12.433594 0-22.808594-9.5-23.902344-21.886719zm447.902344-2.113281c.011719 11.742188-8.492188 21.761719-20.078125 23.65625-1.296875.234375-2.609375.347656-3.921875.34375h-76.136719l-105.992187-82.488281 94.785156-75.792969 111.34375 66.808594zm0 0"/><path d="m240 144c26.507812 0 48-21.492188 48-48s-21.492188-48-48-48-48 21.492188-48 48c.027344 26.5 21.5 47.972656 48 48zm0-80c17.671875 0 32 14.328125 32 32s-14.328125 32-32 32-32-14.328125-32-32 14.328125-32 32-32zm0 0"/></g></svg>