<svg xmlns="http://www.w3.org/2000/svg" xmlns:xlink="http://www.w3.org/1999/xlink" version="1" width="640" height="640">
  <defs>
    <path id="a" d="M0-20A20 20 0 0 0 20 0m-40 0A20 20 0 0 1 0 20" fill="none" stroke="rgba(0,0,0,.05)" stroke-width="4"/>
    <path id="b" d="M0-20A20 20 0 0 1-20 0m40 0A20 20 0 0 0 0 20" fill="none" stroke="rgba(0,0,0,.05)" stroke-width="4"/>
  </defs>
  <use xlink:href="#a" transform="translate(20 20)"/>
  <use xlink:href="#a" transform="translate(100 20)"/>
  <use xlink:href="#a" transform="translate(220 20)"/>
  <use xlink:href="#a" transform="translate(300 20)"/>
  <use xlink:href="#a" transform="translate(340 20)"/>
  <use xlink:href="#a" transform="translate(460 20)"/>
  <use xlink:href="#a" transform="translate(500 20)"/>
  <use xlink:href="#a" transform="translate(220 60)"/>
  <use xlink:href="#a" transform="translate(260 60)"/>
  <use xlink:href="#a" transform="translate(340 60)"/>
  <use xlink:href="#a" transform="translate(380 60)"/>
  <use xlink:href="#a" transform="translate(540 60)"/>
  <use xlink:href="#a" transform="translate(580 60)"/>
  <use xlink:href="#a" transform="translate(620 60)"/>
  <use xlink:href="#a" transform="translate(100 100)"/>
  <use xlink:href="#a" transform="translate(180 100)"/>
  <use xlink:href="#a" transform="translate(300 100)"/>
  <use xlink:href="#a" transform="translate(380 100)"/>
  <use xlink:href="#a" transform="translate(420 100)"/>
  <use xlink:href="#a" transform="translate(460 100)"/>
  <use xlink:href="#a" transform="translate(500 100)"/>
  <use xlink:href="#a" transform="translate(620 100)"/>
  <use xlink:href="#a" transform="translate(60 140)"/>
  <use xlink:href="#a" transform="translate(100 140)"/>
  <use xlink:href="#a" transform="translate(140 140)"/>
  <use xlink:href="#a" transform="translate(260 140)"/>
  <use xlink:href="#a" transform="translate(300 140)"/>
  <use xlink:href="#a" transform="translate(380 140)"/>
  <use xlink:href="#a" transform="translate(420 140)"/>
  <use xlink:href="#a" transform="translate(540 140)"/>
  <use xlink:href="#a" transform="translate(580 140)"/>
  <use xlink:href="#a" transform="translate(20 180)"/>
  <use xlink:href="#a" transform="translate(60 180)"/>
  <use xlink:href="#a" transform="translate(140 180)"/>
  <use xlink:href="#a" transform="translate(180 180)"/>
  <use xlink:href="#a" transform="translate(300 180)"/>
  <use xlink:href="#a" transform="translate(380 180)"/>
  <use xlink:href="#a" transform="translate(500 180)"/>
  <use xlink:href="#a" transform="translate(540 180)"/>
  <use xlink:href="#a" transform="translate(580 180)"/>
  <use xlink:href="#a" transform="translate(60 220)"/>
  <use xlink:href="#a" transform="translate(220 220)"/>
  <use xlink:href="#a" transform="translate(300 220)"/>
  <use xlink:href="#a" transform="translate(340 220)"/>
  <use xlink:href="#a" transform="translate(380 220)"/>
  <use xlink:href="#a" transform="translate(420 220)"/>
  <use xlink:href="#a" transform="translate(460 220)"/>
  <use xlink:href="#a" transform="translate(580 220)"/>
  <use xlink:href="#a" transform="translate(180 260)"/>
  <use xlink:href="#a" transform="translate(220 260)"/>
  <use xlink:href="#a" transform="translate(340 260)"/>
  <use xlink:href="#a" transform="translate(420 260)"/>
  <use xlink:href="#a" transform="translate(460 260)"/>
  <use xlink:href="#a" transform="translate(500 260)"/>
  <use xlink:href="#a" transform="translate(580 260)"/>
  <use xlink:href="#a" transform="translate(60 300)"/>
  <use xlink:href="#a" transform="translate(100 300)"/>
  <use xlink:href="#a" transform="translate(140 300)"/>
  <use xlink:href="#a" transform="translate(180 300)"/>
  <use xlink:href="#a" transform="translate(260 300)"/>
  <use xlink:href="#a" transform="translate(340 300)"/>
  <use xlink:href="#a" transform="translate(380 300)"/>
  <use xlink:href="#a" transform="translate(420 300)"/>
  <use xlink:href="#a" transform="translate(460 300)"/>
  <use xlink:href="#a" transform="translate(540 300)"/>
  <use xlink:href="#a" transform="translate(580 300)"/>
  <use xlink:href="#a" transform="translate(620 300)"/>
  <use xlink:href="#a" transform="translate(140 340)"/>
  <use xlink:href="#a" transform="translate(180 340)"/>
  <use xlink:href="#a" transform="translate(300 340)"/>
  <use xlink:href="#a" transform="translate(340 340)"/>
  <use xlink:href="#a" transform="translate(460 340)"/>
  <use xlink:href="#a" transform="translate(540 340)"/>
  <use xlink:href="#a" transform="translate(100 380)"/>
  <use xlink:href="#a" transform="translate(140 380)"/>
  <use xlink:href="#a" transform="translate(180 380)"/>
  <use xlink:href="#a" transform="translate(220 380)"/>
  <use xlink:href="#a" transform="translate(260 380)"/>
  <use xlink:href="#a" transform="translate(340 380)"/>
  <use xlink:href="#a" transform="translate(420 380)"/>
  <use xlink:href="#a" transform="translate(100 420)"/>
  <use xlink:href="#a" transform="translate(180 420)"/>
  <use xlink:href="#a" transform="translate(220 420)"/>
  <use xlink:href="#a" transform="translate(260 420)"/>
  <use xlink:href="#a" transform="translate(420 420)"/>
  <use xlink:href="#a" transform="translate(460 420)"/>
  <use xlink:href="#a" transform="translate(500 420)"/>
  <use xlink:href="#a" transform="translate(580 420)"/>
  <use xlink:href="#a" transform="translate(20 460)"/>
  <use xlink:href="#a" transform="translate(60 460)"/>
  <use xlink:href="#a" transform="translate(100 460)"/>
  <use xlink:href="#a" transform="translate(140 460)"/>
  <use xlink:href="#a" transform="translate(220 460)"/>
  <use xlink:href="#a" transform="translate(300 460)"/>
  <use xlink:href="#a" transform="translate(340 460)"/>
  <use xlink:href="#a" transform="translate(380 460)"/>
  <use xlink:href="#a" transform="translate(420 460)"/>
  <use xlink:href="#a" transform="translate(500 460)"/>
  <use xlink:href="#a" transform="translate(580 460)"/>
  <use xlink:href="#a" transform="translate(620 460)"/>
  <use xlink:href="#a" transform="translate(60 500)"/>
  <use xlink:href="#a" transform="translate(100 500)"/>
  <use xlink:href="#a" transform="translate(220 500)"/>
  <use xlink:href="#a" transform="translate(340 500)"/>
  <use xlink:href="#a" transform="translate(420 500)"/>
  <use xlink:href="#a" transform="translate(460 500)"/>
  <use xlink:href="#a" transform="translate(500 500)"/>
  <use xlink:href="#a" transform="translate(540 500)"/>
  <use xlink:href="#a" transform="translate(580 500)"/>
  <use xlink:href="#a" transform="translate(620 500)"/>
  <use xlink:href="#a" transform="translate(20 540)"/>
  <use xlink:href="#a" transform="translate(100 540)"/>
  <use xlink:href="#a" transform="translate(140 540)"/>
  <use xlink:href="#a" transform="translate(180 540)"/>
  <use xlink:href="#a" transform="translate(220 540)"/>
  <use xlink:href="#a" transform="translate(260 540)"/>
  <use xlink:href="#a" transform="translate(300 540)"/>
  <use xlink:href="#a" transform="translate(420 540)"/>
  <use xlink:href="#a" transform="translate(460 540)"/>
  <use xlink:href="#a" transform="translate(580 540)"/>
  <use xlink:href="#a" transform="translate(20 580)"/>
  <use xlink:href="#a" transform="translate(60 580)"/>
  <use xlink:href="#a" transform="translate(140 580)"/>
  <use xlink:href="#a" transform="translate(220 580)"/>
  <use xlink:href="#a" transform="translate(260 580)"/>
  <use xlink:href="#a" transform="translate(340 580)"/>
  <use xlink:href="#a" transform="translate(420 580)"/>
  <use xlink:href="#a" transform="translate(500 580)"/>
  <use xlink:href="#a" transform="translate(540 580)"/>
  <use xlink:href="#a" transform="translate(620 580)"/>
  <use xlink:href="#a" transform="translate(100 620)"/>
  <use xlink:href="#a" transform="translate(180 620)"/>
  <use xlink:href="#a" transform="translate(220 620)"/>
  <use xlink:href="#a" transform="translate(300 620)"/>
  <use xlink:href="#a" transform="translate(380 620)"/>
  <use xlink:href="#a" transform="translate(420 620)"/>
  <use xlink:href="#a" transform="translate(500 620)"/>
  <use xlink:href="#a" transform="translate(540 620)"/>
  <use xlink:href="#a" transform="translate(620 620)"/>
  <use xlink:href="#b" transform="translate(60 20)"/>
  <use xlink:href="#b" transform="translate(140 20)"/>
  <use xlink:href="#b" transform="translate(180 20)"/>
  <use xlink:href="#b" transform="translate(260 20)"/>
  <use xlink:href="#b" transform="translate(380 20)"/>
  <use xlink:href="#b" transform="translate(420 20)"/>
  <use xlink:href="#b" transform="translate(540 20)"/>
  <use xlink:href="#b" transform="translate(580 20)"/>
  <use xlink:href="#b" transform="translate(620 20)"/>
  <use xlink:href="#b" transform="translate(20 60)"/>
  <use xlink:href="#b" transform="translate(60 60)"/>
  <use xlink:href="#b" transform="translate(100 60)"/>
  <use xlink:href="#b" transform="translate(140 60)"/>
  <use xlink:href="#b" transform="translate(180 60)"/>
  <use xlink:href="#b" transform="translate(300 60)"/>
  <use xlink:href="#b" transform="translate(420 60)"/>
  <use xlink:href="#b" transform="translate(460 60)"/>
  <use xlink:href="#b" transform="translate(500 60)"/>
  <use xlink:href="#b" transform="translate(20 100)"/>
  <use xlink:href="#b" transform="translate(60 100)"/>
  <use xlink:href="#b" transform="translate(140 100)"/>
  <use xlink:href="#b" transform="translate(220 100)"/>
  <use xlink:href="#b" transform="translate(260 100)"/>
  <use xlink:href="#b" transform="translate(340 100)"/>
  <use xlink:href="#b" transform="translate(540 100)"/>
  <use xlink:href="#b" transform="translate(580 100)"/>
  <use xlink:href="#b" transform="translate(20 140)"/>
  <use xlink:href="#b" transform="translate(180 140)"/>
  <use xlink:href="#b" transform="translate(220 140)"/>
  <use xlink:href="#b" transform="translate(340 140)"/>
  <use xlink:href="#b" transform="translate(460 140)"/>
  <use xlink:href="#b" transform="translate(500 140)"/>
  <use xlink:href="#b" transform="translate(620 140)"/>
  <use xlink:href="#b" transform="translate(100 180)"/>
  <use xlink:href="#b" transform="translate(220 180)"/>
  <use xlink:href="#b" transform="translate(260 180)"/>
  <use xlink:href="#b" transform="translate(340 180)"/>
  <use xlink:href="#b" transform="translate(420 180)"/>
  <use xlink:href="#b" transform="translate(460 180)"/>
  <use xlink:href="#b" transform="translate(620 180)"/>
  <use xlink:href="#b" transform="translate(20 220)"/>
  <use xlink:href="#b" transform="translate(100 220)"/>
  <use xlink:href="#b" transform="translate(140 220)"/>
  <use xlink:href="#b" transform="translate(180 220)"/>
  <use xlink:href="#b" transform="translate(260 220)"/>
  <use xlink:href="#b" transform="translate(500 220)"/>
  <use xlink:href="#b" transform="translate(540 220)"/>
  <use xlink:href="#b" transform="translate(620 220)"/>
  <use xlink:href="#b" transform="translate(20 260)"/>
  <use xlink:href="#b" transform="translate(60 260)"/>
  <use xlink:href="#b" transform="translate(100 260)"/>
  <use xlink:href="#b" transform="translate(140 260)"/>
  <use xlink:href="#b" transform="translate(260 260)"/>
  <use xlink:href="#b" transform="translate(300 260)"/>
  <use xlink:href="#b" transform="translate(380 260)"/>
  <use xlink:href="#b" transform="translate(540 260)"/>
  <use xlink:href="#b" transform="translate(620 260)"/>
  <use xlink:href="#b" transform="translate(20 300)"/>
  <use xlink:href="#b" transform="translate(220 300)"/>
  <use xlink:href="#b" transform="translate(300 300)"/>
  <use xlink:href="#b" transform="translate(500 300)"/>
  <use xlink:href="#b" transform="translate(20 340)"/>
  <use xlink:href="#b" transform="translate(60 340)"/>
  <use xlink:href="#b" transform="translate(100 340)"/>
  <use xlink:href="#b" transform="translate(220 340)"/>
  <use xlink:href="#b" transform="translate(260 340)"/>
  <use xlink:href="#b" transform="translate(380 340)"/>
  <use xlink:href="#b" transform="translate(420 340)"/>
  <use xlink:href="#b" transform="translate(500 340)"/>
  <use xlink:href="#b" transform="translate(580 340)"/>
  <use xlink:href="#b" transform="translate(620 340)"/>
  <use xlink:href="#b" transform="translate(20 380)"/>
  <use xlink:href="#b" transform="translate(60 380)"/>
  <use xlink:href="#b" transform="translate(300 380)"/>
  <use xlink:href="#b" transform="translate(380 380)"/>
  <use xlink:href="#b" transform="translate(460 380)"/>
  <use xlink:href="#b" transform="translate(500 380)"/>
  <use xlink:href="#b" transform="translate(540 380)"/>
  <use xlink:href="#b" transform="translate(580 380)"/>
  <use xlink:href="#b" transform="translate(620 380)"/>
  <use xlink:href="#b" transform="translate(20 420)"/>
  <use xlink:href="#b" transform="translate(60 420)"/>
  <use xlink:href="#b" transform="translate(140 420)"/>
  <use xlink:href="#b" transform="translate(300 420)"/>
  <use xlink:href="#b" transform="translate(340 420)"/>
  <use xlink:href="#b" transform="translate(380 420)"/>
  <use xlink:href="#b" transform="translate(540 420)"/>
  <use xlink:href="#b" transform="translate(620 420)"/>
  <use xlink:href="#b" transform="translate(180 460)"/>
  <use xlink:href="#b" transform="translate(260 460)"/>
  <use xlink:href="#b" transform="translate(460 460)"/>
  <use xlink:href="#b" transform="translate(540 460)"/>
  <use xlink:href="#b" transform="translate(20 500)"/>
  <use xlink:href="#b" transform="translate(140 500)"/>
  <use xlink:href="#b" transform="translate(180 500)"/>
  <use xlink:href="#b" transform="translate(260 500)"/>
  <use xlink:href="#b" transform="translate(300 500)"/>
  <use xlink:href="#b" transform="translate(380 500)"/>
  <use xlink:href="#b" transform="translate(60 540)"/>
  <use xlink:href="#b" transform="translate(340 540)"/>
  <use xlink:href="#b" transform="translate(380 540)"/>
  <use xlink:href="#b" transform="translate(500 540)"/>
  <use xlink:href="#b" transform="translate(540 540)"/>
  <use xlink:href="#b" transform="translate(620 540)"/>
  <use xlink:href="#b" transform="translate(100 580)"/>
  <use xlink:href="#b" transform="translate(180 580)"/>
  <use xlink:href="#b" transform="translate(300 580)"/>
  <use xlink:href="#b" transform="translate(380 580)"/>
  <use xlink:href="#b" transform="translate(460 580)"/>
  <use xlink:href="#b" transform="translate(580 580)"/>
  <use xlink:href="#b" transform="translate(20 620)"/>
  <use xlink:href="#b" transform="translate(60 620)"/>
  <use xlink:href="#b" transform="translate(140 620)"/>
  <use xlink:href="#b" transform="translate(260 620)"/>
  <use xlink:href="#b" transform="translate(340 620)"/>
  <use xlink:href="#b" transform="translate(460 620)"/>
  <use xlink:href="#b" transform="translate(580 620)"/>
</svg>
